<?xml version="1.0" encoding="utf-8" standalone="no"?>
<!DOCTYPE svg PUBLIC "-//W3C//DTD SVG 1.1//EN"
  "http://www.w3.org/Graphics/SVG/1.1/DTD/svg11.dtd">
<!-- Created with matplotlib (https://matplotlib.org/) -->
<svg height="345.6pt" version="1.1" viewBox="0 0 460.8 345.6" width="460.8pt" xmlns="http://www.w3.org/2000/svg" xmlns:xlink="http://www.w3.org/1999/xlink">
 <defs>
  <style type="text/css">
*{stroke-linecap:butt;stroke-linejoin:round;}
  </style>
 </defs>
 <g id="figure_1">
  <g id="patch_1">
   <path d="M 0 345.6 
L 460.8 345.6 
L 460.8 0 
L 0 0 
z
" style="fill:#ffffff;"/>
  </g>
  <g id="axes_1">
   <g id="patch_2">
    <path d="M 66.816 300.672 
L 451.584 300.672 
L 451.584 6.912 
L 66.816 6.912 
z
" style="fill:#ffffff;"/>
   </g>
   <g id="PathCollection_1">
    <defs>
     <path d="M 0 -0.5 
L -0.112257 -0.154508 
L -0.475528 -0.154508 
L -0.181636 0.059017 
L -0.293893 0.404508 
L -0 0.190983 
L 0.293893 0.404508 
L 0.181636 0.059017 
L 0.475528 -0.154508 
L 0.112257 -0.154508 
z
" id="m657c384f7a" style="stroke:#bf00bf;"/>
    </defs>
    <g clip-path="url(#p2c8afe4ae6)">
     <use style="fill:#bf00bf;stroke:#bf00bf;" x="432.250445" xlink:href="#m657c384f7a" y="71.516093"/>
     <use style="fill:#bf00bf;stroke:#bf00bf;" x="434.094545" xlink:href="#m657c384f7a" y="77.325047"/>
     <use style="fill:#bf00bf;stroke:#bf00bf;" x="422.351672" xlink:href="#m657c384f7a" y="86.816701"/>
     <use style="fill:#bf00bf;stroke:#bf00bf;" x="428.332805" xlink:href="#m657c384f7a" y="53.009793"/>
     <use style="fill:#bf00bf;stroke:#bf00bf;" x="420.508541" xlink:href="#m657c384f7a" y="80.75916"/>
     <use style="fill:#bf00bf;stroke:#bf00bf;" x="426.037854" xlink:href="#m657c384f7a" y="50.918839"/>
     <use style="fill:#bf00bf;stroke:#bf00bf;" x="418.641407" xlink:href="#m657c384f7a" y="74.650256"/>
     <use style="fill:#bf00bf;stroke:#bf00bf;" x="416.749749" xlink:href="#m657c384f7a" y="68.52922"/>
     <use style="fill:#bf00bf;stroke:#bf00bf;" x="424.375493" xlink:href="#m657c384f7a" y="44.822472"/>
     <use style="fill:#bf00bf;stroke:#bf00bf;" x="422.464362" xlink:href="#m657c384f7a" y="38.794736"/>
     <use style="fill:#bf00bf;stroke:#bf00bf;" x="414.894528" xlink:href="#m657c384f7a" y="62.491867"/>
     <use style="fill:#bf00bf;stroke:#bf00bf;" x="413.096144" xlink:href="#m657c384f7a" y="56.315501"/>
     <use style="fill:#bf00bf;stroke:#bf00bf;" x="420.625982" xlink:href="#m657c384f7a" y="32.520824"/>
     <use style="fill:#bf00bf;stroke:#bf00bf;" x="411.266494" xlink:href="#m657c384f7a" y="50.226586"/>
     <use style="fill:#bf00bf;stroke:#bf00bf;" x="410.273344" xlink:href="#m657c384f7a" y="47.098387"/>
     <use style="fill:#bf00bf;stroke:#bf00bf;" x="418.794867" xlink:href="#m657c384f7a" y="26.463052"/>
     <use style="fill:#bf00bf;stroke:#bf00bf;" x="409.442998" xlink:href="#m657c384f7a" y="44.196483"/>
     <use style="fill:#bf00bf;stroke:#bf00bf;" x="407.59467" xlink:href="#m657c384f7a" y="38.027039"/>
     <use style="fill:#bf00bf;stroke:#bf00bf;" x="416.924668" xlink:href="#m657c384f7a" y="20.471668"/>
     <use style="fill:#bf00bf;stroke:#bf00bf;" x="403.487609" xlink:href="#m657c384f7a" y="20.264727"/>
     <use style="fill:#bf00bf;stroke:#bf00bf;" x="400.579457" xlink:href="#m657c384f7a" y="24.682453"/>
     <use style="fill:#bf00bf;stroke:#bf00bf;" x="396.948202" xlink:href="#m657c384f7a" y="51.356738"/>
     <use style="fill:#bf00bf;stroke:#bf00bf;" x="396.38901" xlink:href="#m657c384f7a" y="56.502103"/>
     <use style="fill:#bf00bf;stroke:#bf00bf;" x="397.741758" xlink:href="#m657c384f7a" y="28.664478"/>
     <use style="fill:#bf00bf;stroke:#bf00bf;" x="397.564211" xlink:href="#m657c384f7a" y="54.83175"/>
     <use style="fill:#bf00bf;stroke:#bf00bf;" x="405.714365" xlink:href="#m657c384f7a" y="80.716332"/>
     <use style="fill:#bf00bf;stroke:#bf00bf;" x="407.600313" xlink:href="#m657c384f7a" y="86.841677"/>
     <use style="fill:#bf00bf;stroke:#bf00bf;" x="411.36645" xlink:href="#m657c384f7a" y="98.917574"/>
     <use style="fill:#bf00bf;stroke:#bf00bf;" x="413.193543" xlink:href="#m657c384f7a" y="104.892702"/>
     <use style="fill:#bf00bf;stroke:#bf00bf;" x="414.873865" xlink:href="#m657c384f7a" y="111.488663"/>
     <use style="fill:#bf00bf;stroke:#bf00bf;" x="420.83606" xlink:href="#m657c384f7a" y="115.444157"/>
     <use style="fill:#bf00bf;stroke:#bf00bf;" x="427.440945" xlink:href="#m657c384f7a" y="126.178445"/>
     <use style="fill:#bf00bf;stroke:#bf00bf;" x="421.283908" xlink:href="#m657c384f7a" y="133.968028"/>
     <use style="fill:#bf00bf;stroke:#bf00bf;" x="411.588402" xlink:href="#m657c384f7a" y="142.15807"/>
     <use style="fill:#bf00bf;stroke:#bf00bf;" x="410.680454" xlink:href="#m657c384f7a" y="155.288691"/>
     <use style="fill:#bf00bf;stroke:#bf00bf;" x="411.713114" xlink:href="#m657c384f7a" y="162.763631"/>
     <use style="fill:#bf00bf;stroke:#bf00bf;" x="403.324874" xlink:href="#m657c384f7a" y="153.451799"/>
     <use style="fill:#bf00bf;stroke:#bf00bf;" x="395.864681" xlink:href="#m657c384f7a" y="157.051188"/>
     <use style="fill:#bf00bf;stroke:#bf00bf;" x="401.80458" xlink:href="#m657c384f7a" y="183.292087"/>
     <use style="fill:#bf00bf;stroke:#bf00bf;" x="394.336946" xlink:href="#m657c384f7a" y="183.704273"/>
     <use style="fill:#bf00bf;stroke:#bf00bf;" x="391.505219" xlink:href="#m657c384f7a" y="174.68109"/>
     <use style="fill:#bf00bf;stroke:#bf00bf;" x="387.369426" xlink:href="#m657c384f7a" y="183.971902"/>
     <use style="fill:#bf00bf;stroke:#bf00bf;" x="385.246862" xlink:href="#m657c384f7a" y="181.720352"/>
     <use style="fill:#bf00bf;stroke:#bf00bf;" x="374.86643" xlink:href="#m657c384f7a" y="184.302741"/>
     <use style="fill:#bf00bf;stroke:#bf00bf;" x="374.972746" xlink:href="#m657c384f7a" y="181.833812"/>
     <use style="fill:#bf00bf;stroke:#bf00bf;" x="367.298274" xlink:href="#m657c384f7a" y="180.097743"/>
     <use style="fill:#bf00bf;stroke:#bf00bf;" x="366.406521" xlink:href="#m657c384f7a" y="179.322851"/>
     <use style="fill:#bf00bf;stroke:#bf00bf;" x="365.346364" xlink:href="#m657c384f7a" y="182.155202"/>
     <use style="fill:#bf00bf;stroke:#bf00bf;" x="356.5456" xlink:href="#m657c384f7a" y="170.85546"/>
     <use style="fill:#bf00bf;stroke:#bf00bf;" x="358.985921" xlink:href="#m657c384f7a" y="190.57547"/>
     <use style="fill:#bf00bf;stroke:#bf00bf;" x="348.798633" xlink:href="#m657c384f7a" y="181.396205"/>
     <use style="fill:#bf00bf;stroke:#bf00bf;" x="348.819534" xlink:href="#m657c384f7a" y="187.843166"/>
     <use style="fill:#bf00bf;stroke:#bf00bf;" x="355.42276" xlink:href="#m657c384f7a" y="204.774612"/>
     <use style="fill:#bf00bf;stroke:#bf00bf;" x="343.379843" xlink:href="#m657c384f7a" y="184.484441"/>
     <use style="fill:#bf00bf;stroke:#bf00bf;" x="344.981552" xlink:href="#m657c384f7a" y="212.803087"/>
     <use style="fill:#bf00bf;stroke:#bf00bf;" x="347.765603" xlink:href="#m657c384f7a" y="198.095772"/>
     <use style="fill:#bf00bf;stroke:#bf00bf;" x="349.796553" xlink:href="#m657c384f7a" y="213.664246"/>
     <use style="fill:#bf00bf;stroke:#bf00bf;" x="338.264215" xlink:href="#m657c384f7a" y="189.201064"/>
     <use style="fill:#bf00bf;stroke:#bf00bf;" x="337.765157" xlink:href="#m657c384f7a" y="186.138508"/>
     <use style="fill:#bf00bf;stroke:#bf00bf;" x="338.153549" xlink:href="#m657c384f7a" y="181.641082"/>
     <use style="fill:#bf00bf;stroke:#bf00bf;" x="329.382834" xlink:href="#m657c384f7a" y="193.803508"/>
     <use style="fill:#bf00bf;stroke:#bf00bf;" x="339.226714" xlink:href="#m657c384f7a" y="224.427123"/>
     <use style="fill:#bf00bf;stroke:#bf00bf;" x="328.976934" xlink:href="#m657c384f7a" y="228.253845"/>
     <use style="fill:#bf00bf;stroke:#bf00bf;" x="325.279762" xlink:href="#m657c384f7a" y="220.500749"/>
     <use style="fill:#bf00bf;stroke:#bf00bf;" x="328.387789" xlink:href="#m657c384f7a" y="245.722522"/>
     <use style="fill:#bf00bf;stroke:#bf00bf;" x="324.442202" xlink:href="#m657c384f7a" y="218.642382"/>
     <use style="fill:#bf00bf;stroke:#bf00bf;" x="332.437358" xlink:href="#m657c384f7a" y="253.059715"/>
     <use style="fill:#bf00bf;stroke:#bf00bf;" x="324.531248" xlink:href="#m657c384f7a" y="251.830574"/>
     <use style="fill:#bf00bf;stroke:#bf00bf;" x="326.242627" xlink:href="#m657c384f7a" y="248.766319"/>
     <use style="fill:#bf00bf;stroke:#bf00bf;" x="326.550807" xlink:href="#m657c384f7a" y="255.626504"/>
     <use style="fill:#bf00bf;stroke:#bf00bf;" x="323.586856" xlink:href="#m657c384f7a" y="261.059251"/>
     <use style="fill:#bf00bf;stroke:#bf00bf;" x="314.817482" xlink:href="#m657c384f7a" y="249.394167"/>
     <use style="fill:#bf00bf;stroke:#bf00bf;" x="323.768574" xlink:href="#m657c384f7a" y="273.182667"/>
     <use style="fill:#bf00bf;stroke:#bf00bf;" x="313.950767" xlink:href="#m657c384f7a" y="267.984395"/>
     <use style="fill:#bf00bf;stroke:#bf00bf;" x="318.70762" xlink:href="#m657c384f7a" y="270.668939"/>
     <use style="fill:#bf00bf;stroke:#bf00bf;" x="302.090576" xlink:href="#m657c384f7a" y="273.858816"/>
     <use style="fill:#bf00bf;stroke:#bf00bf;" x="315.955228" xlink:href="#m657c384f7a" y="273.816904"/>
     <use style="fill:#bf00bf;stroke:#bf00bf;" x="307.419151" xlink:href="#m657c384f7a" y="248.600827"/>
     <use style="fill:#bf00bf;stroke:#bf00bf;" x="293.779721" xlink:href="#m657c384f7a" y="273.368572"/>
     <use style="fill:#bf00bf;stroke:#bf00bf;" x="286.675972" xlink:href="#m657c384f7a" y="267.538201"/>
     <use style="fill:#bf00bf;stroke:#bf00bf;" x="285.787705" xlink:href="#m657c384f7a" y="272.851102"/>
     <use style="fill:#bf00bf;stroke:#bf00bf;" x="287.610311" xlink:href="#m657c384f7a" y="275.536749"/>
     <use style="fill:#bf00bf;stroke:#bf00bf;" x="280.76134" xlink:href="#m657c384f7a" y="273.75227"/>
     <use style="fill:#bf00bf;stroke:#bf00bf;" x="272.799412" xlink:href="#m657c384f7a" y="246.92113"/>
     <use style="fill:#bf00bf;stroke:#bf00bf;" x="269.618608" xlink:href="#m657c384f7a" y="273.760179"/>
     <use style="fill:#bf00bf;stroke:#bf00bf;" x="266.21684" xlink:href="#m657c384f7a" y="274.376928"/>
     <use style="fill:#bf00bf;stroke:#bf00bf;" x="271.218009" xlink:href="#m657c384f7a" y="246.963973"/>
     <use style="fill:#bf00bf;stroke:#bf00bf;" x="260.340414" xlink:href="#m657c384f7a" y="273.960581"/>
     <use style="fill:#bf00bf;stroke:#bf00bf;" x="269.206135" xlink:href="#m657c384f7a" y="287.319273"/>
     <use style="fill:#bf00bf;stroke:#bf00bf;" x="254.331238" xlink:href="#m657c384f7a" y="275.133934"/>
     <use style="fill:#bf00bf;stroke:#bf00bf;" x="243.875386" xlink:href="#m657c384f7a" y="276.824776"/>
     <use style="fill:#bf00bf;stroke:#bf00bf;" x="239.311683" xlink:href="#m657c384f7a" y="276.168474"/>
     <use style="fill:#bf00bf;stroke:#bf00bf;" x="239.9149" xlink:href="#m657c384f7a" y="271.546733"/>
     <use style="fill:#bf00bf;stroke:#bf00bf;" x="247.00102" xlink:href="#m657c384f7a" y="269.994014"/>
     <use style="fill:#bf00bf;stroke:#bf00bf;" x="249.811285" xlink:href="#m657c384f7a" y="276.087423"/>
     <use style="fill:#bf00bf;stroke:#bf00bf;" x="247.259929" xlink:href="#m657c384f7a" y="274.052771"/>
     <use style="fill:#bf00bf;stroke:#bf00bf;" x="329.738308" xlink:href="#m657c384f7a" y="244.584579"/>
     <use style="fill:#bf00bf;stroke:#bf00bf;" x="330.723142" xlink:href="#m657c384f7a" y="233.479905"/>
     <use style="fill:#bf00bf;stroke:#bf00bf;" x="326.313938" xlink:href="#m657c384f7a" y="222.600206"/>
     <use style="fill:#bf00bf;stroke:#bf00bf;" x="337.922661" xlink:href="#m657c384f7a" y="160.10673"/>
     <use style="fill:#bf00bf;stroke:#bf00bf;" x="329.493349" xlink:href="#m657c384f7a" y="155.135926"/>
     <use style="fill:#bf00bf;stroke:#bf00bf;" x="327.616815" xlink:href="#m657c384f7a" y="156.157741"/>
     <use style="fill:#bf00bf;stroke:#bf00bf;" x="329.692825" xlink:href="#m657c384f7a" y="146.076195"/>
     <use style="fill:#bf00bf;stroke:#bf00bf;" x="330.192199" xlink:href="#m657c384f7a" y="144.175294"/>
     <use style="fill:#bf00bf;stroke:#bf00bf;" x="337.771663" xlink:href="#m657c384f7a" y="142.480569"/>
     <use style="fill:#bf00bf;stroke:#bf00bf;" x="329.888594" xlink:href="#m657c384f7a" y="152.81242"/>
     <use style="fill:#bf00bf;stroke:#bf00bf;" x="326.299406" xlink:href="#m657c384f7a" y="151.457588"/>
     <use style="fill:#bf00bf;stroke:#bf00bf;" x="325.458286" xlink:href="#m657c384f7a" y="137.739196"/>
     <use style="fill:#bf00bf;stroke:#bf00bf;" x="326.143832" xlink:href="#m657c384f7a" y="142.128041"/>
     <use style="fill:#bf00bf;stroke:#bf00bf;" x="337.725602" xlink:href="#m657c384f7a" y="126.416399"/>
     <use style="fill:#bf00bf;stroke:#bf00bf;" x="329.394175" xlink:href="#m657c384f7a" y="100.669002"/>
     <use style="fill:#bf00bf;stroke:#bf00bf;" x="329.443088" xlink:href="#m657c384f7a" y="96.301111"/>
     <use style="fill:#bf00bf;stroke:#bf00bf;" x="339.008746" xlink:href="#m657c384f7a" y="89.316723"/>
     <use style="fill:#bf00bf;stroke:#bf00bf;" x="329.46224" xlink:href="#m657c384f7a" y="91.774247"/>
     <use style="fill:#bf00bf;stroke:#bf00bf;" x="323.151613" xlink:href="#m657c384f7a" y="79.447653"/>
     <use style="fill:#bf00bf;stroke:#bf00bf;" x="325.501486" xlink:href="#m657c384f7a" y="76.865011"/>
     <use style="fill:#bf00bf;stroke:#bf00bf;" x="329.040341" xlink:href="#m657c384f7a" y="72.125464"/>
     <use style="fill:#bf00bf;stroke:#bf00bf;" x="337.555968" xlink:href="#m657c384f7a" y="71.842981"/>
     <use style="fill:#bf00bf;stroke:#bf00bf;" x="329.05008" xlink:href="#m657c384f7a" y="51.4833"/>
     <use style="fill:#bf00bf;stroke:#bf00bf;" x="321.042579" xlink:href="#m657c384f7a" y="76.974645"/>
     <use style="fill:#bf00bf;stroke:#bf00bf;" x="330.710993" xlink:href="#m657c384f7a" y="48.392454"/>
     <use style="fill:#bf00bf;stroke:#bf00bf;" x="319.441359" xlink:href="#m657c384f7a" y="69.299404"/>
     <use style="fill:#bf00bf;stroke:#bf00bf;" x="308.703215" xlink:href="#m657c384f7a" y="69.19315"/>
     <use style="fill:#bf00bf;stroke:#bf00bf;" x="305.812618" xlink:href="#m657c384f7a" y="69.438261"/>
     <use style="fill:#bf00bf;stroke:#bf00bf;" x="305.218757" xlink:href="#m657c384f7a" y="79.794022"/>
     <use style="fill:#bf00bf;stroke:#bf00bf;" x="302.535864" xlink:href="#m657c384f7a" y="51.123817"/>
     <use style="fill:#bf00bf;stroke:#bf00bf;" x="297.809947" xlink:href="#m657c384f7a" y="68.863118"/>
     <use style="fill:#bf00bf;stroke:#bf00bf;" x="295.17854" xlink:href="#m657c384f7a" y="74.154188"/>
     <use style="fill:#bf00bf;stroke:#bf00bf;" x="287.114128" xlink:href="#m657c384f7a" y="68.719622"/>
     <use style="fill:#bf00bf;stroke:#bf00bf;" x="280.274654" xlink:href="#m657c384f7a" y="48.336516"/>
     <use style="fill:#bf00bf;stroke:#bf00bf;" x="276.34933" xlink:href="#m657c384f7a" y="68.586065"/>
     <use style="fill:#bf00bf;stroke:#bf00bf;" x="275.75781" xlink:href="#m657c384f7a" y="77.121938"/>
     <use style="fill:#bf00bf;stroke:#bf00bf;" x="274.240517" xlink:href="#m657c384f7a" y="47.727744"/>
     <use style="fill:#bf00bf;stroke:#bf00bf;" x="272.862344" xlink:href="#m657c384f7a" y="80.072925"/>
     <use style="fill:#bf00bf;stroke:#bf00bf;" x="273.430623" xlink:href="#m657c384f7a" y="85.680854"/>
     <use style="fill:#bf00bf;stroke:#bf00bf;" x="265.771074" xlink:href="#m657c384f7a" y="71.568781"/>
     <use style="fill:#bf00bf;stroke:#bf00bf;" x="272.19501" xlink:href="#m657c384f7a" y="82.727349"/>
     <use style="fill:#bf00bf;stroke:#bf00bf;" x="270.040582" xlink:href="#m657c384f7a" y="90.687741"/>
     <use style="fill:#bf00bf;stroke:#bf00bf;" x="274.349494" xlink:href="#m657c384f7a" y="90.341785"/>
     <use style="fill:#bf00bf;stroke:#bf00bf;" x="272.941297" xlink:href="#m657c384f7a" y="92.285848"/>
     <use style="fill:#bf00bf;stroke:#bf00bf;" x="271.260913" xlink:href="#m657c384f7a" y="91.042168"/>
     <use style="fill:#bf00bf;stroke:#bf00bf;" x="274.77033" xlink:href="#m657c384f7a" y="95.835881"/>
     <use style="fill:#bf00bf;stroke:#bf00bf;" x="259.096459" xlink:href="#m657c384f7a" y="84.495482"/>
     <use style="fill:#bf00bf;stroke:#bf00bf;" x="274.36743" xlink:href="#m657c384f7a" y="103.933196"/>
     <use style="fill:#bf00bf;stroke:#bf00bf;" x="275.495278" xlink:href="#m657c384f7a" y="105.16817"/>
     <use style="fill:#bf00bf;stroke:#bf00bf;" x="264.74386" xlink:href="#m657c384f7a" y="106.827502"/>
     <use style="fill:#bf00bf;stroke:#bf00bf;" x="274.324527" xlink:href="#m657c384f7a" y="108.354555"/>
     <use style="fill:#bf00bf;stroke:#bf00bf;" x="271.153255" xlink:href="#m657c384f7a" y="114.894239"/>
     <use style="fill:#bf00bf;stroke:#bf00bf;" x="274.137271" xlink:href="#m657c384f7a" y="115.564824"/>
     <use style="fill:#bf00bf;stroke:#bf00bf;" x="273.955679" xlink:href="#m657c384f7a" y="117.530752"/>
     <use style="fill:#bf00bf;stroke:#bf00bf;" x="271.962994" xlink:href="#m657c384f7a" y="122.045671"/>
     <use style="fill:#bf00bf;stroke:#bf00bf;" x="273.81093" xlink:href="#m657c384f7a" y="123.320573"/>
     <use style="fill:#bf00bf;stroke:#bf00bf;" x="256.916208" xlink:href="#m657c384f7a" y="124.687187"/>
     <use style="fill:#bf00bf;stroke:#bf00bf;" x="256.096225" xlink:href="#m657c384f7a" y="124.150398"/>
     <use style="fill:#bf00bf;stroke:#bf00bf;" x="255.768521" xlink:href="#m657c384f7a" y="112.572687"/>
     <use style="fill:#bf00bf;stroke:#bf00bf;" x="256.734529" xlink:href="#m657c384f7a" y="121.401524"/>
     <use style="fill:#bf00bf;stroke:#bf00bf;" x="253.184175" xlink:href="#m657c384f7a" y="110.060066"/>
     <use style="fill:#bf00bf;stroke:#bf00bf;" x="254.329246" xlink:href="#m657c384f7a" y="118.83464"/>
     <use style="fill:#bf00bf;stroke:#bf00bf;" x="251.157802" xlink:href="#m657c384f7a" y="110.641856"/>
     <use style="fill:#bf00bf;stroke:#bf00bf;" x="255.625132" xlink:href="#m657c384f7a" y="114.837638"/>
     <use style="fill:#bf00bf;stroke:#bf00bf;" x="248.669272" xlink:href="#m657c384f7a" y="122.146487"/>
     <use style="fill:#bf00bf;stroke:#bf00bf;" x="253.293585" xlink:href="#m657c384f7a" y="118.916347"/>
     <use style="fill:#bf00bf;stroke:#bf00bf;" x="247.259591" xlink:href="#m657c384f7a" y="110.158752"/>
     <use style="fill:#bf00bf;stroke:#bf00bf;" x="253.663023" xlink:href="#m657c384f7a" y="105.859871"/>
     <use style="fill:#bf00bf;stroke:#bf00bf;" x="248.910003" xlink:href="#m657c384f7a" y="110.329021"/>
     <use style="fill:#bf00bf;stroke:#bf00bf;" x="245.342739" xlink:href="#m657c384f7a" y="110.068883"/>
     <use style="fill:#bf00bf;stroke:#bf00bf;" x="243.387619" xlink:href="#m657c384f7a" y="110.066199"/>
     <use style="fill:#bf00bf;stroke:#bf00bf;" x="248.391352" xlink:href="#m657c384f7a" y="118.42059"/>
     <use style="fill:#bf00bf;stroke:#bf00bf;" x="239.512441" xlink:href="#m657c384f7a" y="110.224197"/>
     <use style="fill:#bf00bf;stroke:#bf00bf;" x="241.460295" xlink:href="#m657c384f7a" y="110.169133"/>
     <use style="fill:#bf00bf;stroke:#bf00bf;" x="239.314697" xlink:href="#m657c384f7a" y="119.881953"/>
     <use style="fill:#bf00bf;stroke:#bf00bf;" x="237.571349" xlink:href="#m657c384f7a" y="110.277163"/>
     <use style="fill:#bf00bf;stroke:#bf00bf;" x="250.974383" xlink:href="#m657c384f7a" y="118.513762"/>
     <use style="fill:#bf00bf;stroke:#bf00bf;" x="240.045535" xlink:href="#m657c384f7a" y="120.060142"/>
     <use style="fill:#bf00bf;stroke:#bf00bf;" x="235.131287" xlink:href="#m657c384f7a" y="119.204598"/>
     <use style="fill:#bf00bf;stroke:#bf00bf;" x="235.584678" xlink:href="#m657c384f7a" y="110.201625"/>
     <use style="fill:#bf00bf;stroke:#bf00bf;" x="230.019662" xlink:href="#m657c384f7a" y="110.878386"/>
     <use style="fill:#bf00bf;stroke:#bf00bf;" x="231.260186" xlink:href="#m657c384f7a" y="117.580853"/>
     <use style="fill:#bf00bf;stroke:#bf00bf;" x="229.39109" xlink:href="#m657c384f7a" y="116.93499"/>
     <use style="fill:#bf00bf;stroke:#bf00bf;" x="227.408498" xlink:href="#m657c384f7a" y="115.813628"/>
     <use style="fill:#bf00bf;stroke:#bf00bf;" x="225.551511" xlink:href="#m657c384f7a" y="115.383888"/>
     <use style="fill:#bf00bf;stroke:#bf00bf;" x="226.486987" xlink:href="#m657c384f7a" y="115.415744"/>
     <use style="fill:#bf00bf;stroke:#bf00bf;" x="225.31227" xlink:href="#m657c384f7a" y="111.203167"/>
     <use style="fill:#bf00bf;stroke:#bf00bf;" x="224.707072" xlink:href="#m657c384f7a" y="115.535422"/>
     <use style="fill:#bf00bf;stroke:#bf00bf;" x="233.278379" xlink:href="#m657c384f7a" y="118.046906"/>
     <use style="fill:#bf00bf;stroke:#bf00bf;" x="221.071979" xlink:href="#m657c384f7a" y="109.828673"/>
     <use style="fill:#bf00bf;stroke:#bf00bf;" x="221.257174" xlink:href="#m657c384f7a" y="101.815208"/>
     <use style="fill:#bf00bf;stroke:#bf00bf;" x="223.288858" xlink:href="#m657c384f7a" y="110.567088"/>
     <use style="fill:#bf00bf;stroke:#bf00bf;" x="224.355181" xlink:href="#m657c384f7a" y="87.97702"/>
     <use style="fill:#bf00bf;stroke:#bf00bf;" x="217.904251" xlink:href="#m657c384f7a" y="89.540941"/>
     <use style="fill:#bf00bf;stroke:#bf00bf;" x="223.519843" xlink:href="#m657c384f7a" y="83.680114"/>
     <use style="fill:#bf00bf;stroke:#bf00bf;" x="215.007212" xlink:href="#m657c384f7a" y="82.592923"/>
     <use style="fill:#bf00bf;stroke:#bf00bf;" x="212.451106" xlink:href="#m657c384f7a" y="81.545912"/>
     <use style="fill:#bf00bf;stroke:#bf00bf;" x="224.328781" xlink:href="#m657c384f7a" y="69.017565"/>
     <use style="fill:#bf00bf;stroke:#bf00bf;" x="226.150862" xlink:href="#m657c384f7a" y="72.378154"/>
     <use style="fill:#bf00bf;stroke:#bf00bf;" x="210.781261" xlink:href="#m657c384f7a" y="80.34776"/>
     <use style="fill:#bf00bf;stroke:#bf00bf;" x="216.787353" xlink:href="#m657c384f7a" y="69.021967"/>
     <use style="fill:#bf00bf;stroke:#bf00bf;" x="202.830976" xlink:href="#m657c384f7a" y="79.155827"/>
     <use style="fill:#bf00bf;stroke:#bf00bf;" x="196.804918" xlink:href="#m657c384f7a" y="53.196387"/>
     <use style="fill:#bf00bf;stroke:#bf00bf;" x="195.720682" xlink:href="#m657c384f7a" y="69.28317"/>
     <use style="fill:#bf00bf;stroke:#bf00bf;" x="193.365842" xlink:href="#m657c384f7a" y="66.097783"/>
     <use style="fill:#bf00bf;stroke:#bf00bf;" x="185.944289" xlink:href="#m657c384f7a" y="69.448605"/>
     <use style="fill:#bf00bf;stroke:#bf00bf;" x="181.305443" xlink:href="#m657c384f7a" y="87.278557"/>
     <use style="fill:#bf00bf;stroke:#bf00bf;" x="177.377312" xlink:href="#m657c384f7a" y="80.231463"/>
     <use style="fill:#bf00bf;stroke:#bf00bf;" x="176.143533" xlink:href="#m657c384f7a" y="69.407546"/>
     <use style="fill:#bf00bf;stroke:#bf00bf;" x="176.250626" xlink:href="#m657c384f7a" y="85.313649"/>
     <use style="fill:#bf00bf;stroke:#bf00bf;" x="167.461453" xlink:href="#m657c384f7a" y="53.58626"/>
     <use style="fill:#bf00bf;stroke:#bf00bf;" x="166.422799" xlink:href="#m657c384f7a" y="69.782664"/>
     <use style="fill:#bf00bf;stroke:#bf00bf;" x="155.519437" xlink:href="#m657c384f7a" y="70.037684"/>
     <use style="fill:#bf00bf;stroke:#bf00bf;" x="142.837279" xlink:href="#m657c384f7a" y="53.91641"/>
     <use style="fill:#bf00bf;stroke:#bf00bf;" x="144.496951" xlink:href="#m657c384f7a" y="70.046242"/>
     <use style="fill:#bf00bf;stroke:#bf00bf;" x="145.531856" xlink:href="#m657c384f7a" y="51.810614"/>
     <use style="fill:#bf00bf;stroke:#bf00bf;" x="144.781976" xlink:href="#m657c384f7a" y="51.472122"/>
     <use style="fill:#bf00bf;stroke:#bf00bf;" x="141.08042" xlink:href="#m657c384f7a" y="68.390832"/>
     <use style="fill:#bf00bf;stroke:#bf00bf;" x="134.512557" xlink:href="#m657c384f7a" y="70.512637"/>
     <use style="fill:#bf00bf;stroke:#bf00bf;" x="133.51418" xlink:href="#m657c384f7a" y="73.224522"/>
     <use style="fill:#bf00bf;stroke:#bf00bf;" x="137.3289" xlink:href="#m657c384f7a" y="76.393187"/>
     <use style="fill:#bf00bf;stroke:#bf00bf;" x="131.894483" xlink:href="#m657c384f7a" y="48.521506"/>
     <use style="fill:#bf00bf;stroke:#bf00bf;" x="124.383283" xlink:href="#m657c384f7a" y="70.662001"/>
     <use style="fill:#bf00bf;stroke:#bf00bf;" x="123.339309" xlink:href="#m657c384f7a" y="77.161717"/>
     <use style="fill:#bf00bf;stroke:#bf00bf;" x="118.310837" xlink:href="#m657c384f7a" y="76.206108"/>
     <use style="fill:#bf00bf;stroke:#bf00bf;" x="113.637872" xlink:href="#m657c384f7a" y="54.680176"/>
     <use style="fill:#bf00bf;stroke:#bf00bf;" x="114.437499" xlink:href="#m657c384f7a" y="70.927254"/>
     <use style="fill:#bf00bf;stroke:#bf00bf;" x="116.392808" xlink:href="#m657c384f7a" y="72.974766"/>
     <use style="fill:#bf00bf;stroke:#bf00bf;" x="104.314193" xlink:href="#m657c384f7a" y="71.191666"/>
     <use style="fill:#bf00bf;stroke:#bf00bf;" x="94.370322" xlink:href="#m657c384f7a" y="71.732468"/>
     <use style="fill:#bf00bf;stroke:#bf00bf;" x="84.305455" xlink:href="#m657c384f7a" y="71.931466"/>
    </g>
   </g>
   <g id="matplotlib.axis_1">
    <g id="xtick_1">
     <g id="line2d_1">
      <path clip-path="url(#p2c8afe4ae6)" d="M 103.102073 300.672 
L 103.102073 6.912 
" style="fill:none;stroke:#808080;stroke-linecap:square;"/>
     </g>
     <g id="line2d_2">
      <defs>
       <path d="M 0 0 
L 0 3.5 
" id="md9313a6ec2" style="stroke:#000000;stroke-width:0.8;"/>
      </defs>
      <g>
       <use style="stroke:#000000;stroke-width:0.8;" x="103.102073" xlink:href="#md9313a6ec2" y="300.672"/>
      </g>
     </g>
     <g id="text_1">
      <!-- −400 -->
      <defs>
       <path d="M 10.59375 35.5 
L 73.1875 35.5 
L 73.1875 27.203125 
L 10.59375 27.203125 
z
" id="DejaVuSans-8722"/>
       <path d="M 37.796875 64.3125 
L 12.890625 25.390625 
L 37.796875 25.390625 
z
M 35.203125 72.90625 
L 47.609375 72.90625 
L 47.609375 25.390625 
L 58.015625 25.390625 
L 58.015625 17.1875 
L 47.609375 17.1875 
L 47.609375 0 
L 37.796875 0 
L 37.796875 17.1875 
L 4.890625 17.1875 
L 4.890625 26.703125 
z
" id="DejaVuSans-52"/>
       <path d="M 31.78125 66.40625 
Q 24.171875 66.40625 20.328125 58.90625 
Q 16.5 51.421875 16.5 36.375 
Q 16.5 21.390625 20.328125 13.890625 
Q 24.171875 6.390625 31.78125 6.390625 
Q 39.453125 6.390625 43.28125 13.890625 
Q 47.125 21.390625 47.125 36.375 
Q 47.125 51.421875 43.28125 58.90625 
Q 39.453125 66.40625 31.78125 66.40625 
z
M 31.78125 74.21875 
Q 44.046875 74.21875 50.515625 64.515625 
Q 56.984375 54.828125 56.984375 36.375 
Q 56.984375 17.96875 50.515625 8.265625 
Q 44.046875 -1.421875 31.78125 -1.421875 
Q 19.53125 -1.421875 13.0625 8.265625 
Q 6.59375 17.96875 6.59375 36.375 
Q 6.59375 54.828125 13.0625 64.515625 
Q 19.53125 74.21875 31.78125 74.21875 
z
" id="DejaVuSans-48"/>
      </defs>
      <g transform="translate(89.36848 315.270437)scale(0.1 -0.1)">
       <use xlink:href="#DejaVuSans-8722"/>
       <use x="83.789062" xlink:href="#DejaVuSans-52"/>
       <use x="147.412109" xlink:href="#DejaVuSans-48"/>
       <use x="211.035156" xlink:href="#DejaVuSans-48"/>
      </g>
     </g>
    </g>
    <g id="xtick_2">
     <g id="line2d_3">
      <path clip-path="url(#p2c8afe4ae6)" d="M 167.347595 300.672 
L 167.347595 6.912 
" style="fill:none;stroke:#808080;stroke-linecap:square;"/>
     </g>
     <g id="line2d_4">
      <g>
       <use style="stroke:#000000;stroke-width:0.8;" x="167.347595" xlink:href="#md9313a6ec2" y="300.672"/>
      </g>
     </g>
     <g id="text_2">
      <!-- −300 -->
      <defs>
       <path d="M 40.578125 39.3125 
Q 47.65625 37.796875 51.625 33 
Q 55.609375 28.21875 55.609375 21.1875 
Q 55.609375 10.40625 48.1875 4.484375 
Q 40.765625 -1.421875 27.09375 -1.421875 
Q 22.515625 -1.421875 17.65625 -0.515625 
Q 12.796875 0.390625 7.625 2.203125 
L 7.625 11.71875 
Q 11.71875 9.328125 16.59375 8.109375 
Q 21.484375 6.890625 26.8125 6.890625 
Q 36.078125 6.890625 40.9375 10.546875 
Q 45.796875 14.203125 45.796875 21.1875 
Q 45.796875 27.640625 41.28125 31.265625 
Q 36.765625 34.90625 28.71875 34.90625 
L 20.21875 34.90625 
L 20.21875 43.015625 
L 29.109375 43.015625 
Q 36.375 43.015625 40.234375 45.921875 
Q 44.09375 48.828125 44.09375 54.296875 
Q 44.09375 59.90625 40.109375 62.90625 
Q 36.140625 65.921875 28.71875 65.921875 
Q 24.65625 65.921875 20.015625 65.03125 
Q 15.375 64.15625 9.8125 62.3125 
L 9.8125 71.09375 
Q 15.4375 72.65625 20.34375 73.4375 
Q 25.25 74.21875 29.59375 74.21875 
Q 40.828125 74.21875 47.359375 69.109375 
Q 53.90625 64.015625 53.90625 55.328125 
Q 53.90625 49.265625 50.4375 45.09375 
Q 46.96875 40.921875 40.578125 39.3125 
z
" id="DejaVuSans-51"/>
      </defs>
      <g transform="translate(153.614002 315.270437)scale(0.1 -0.1)">
       <use xlink:href="#DejaVuSans-8722"/>
       <use x="83.789062" xlink:href="#DejaVuSans-51"/>
       <use x="147.412109" xlink:href="#DejaVuSans-48"/>
       <use x="211.035156" xlink:href="#DejaVuSans-48"/>
      </g>
     </g>
    </g>
    <g id="xtick_3">
     <g id="line2d_5">
      <path clip-path="url(#p2c8afe4ae6)" d="M 231.593117 300.672 
L 231.593117 6.912 
" style="fill:none;stroke:#808080;stroke-linecap:square;"/>
     </g>
     <g id="line2d_6">
      <g>
       <use style="stroke:#000000;stroke-width:0.8;" x="231.593117" xlink:href="#md9313a6ec2" y="300.672"/>
      </g>
     </g>
     <g id="text_3">
      <!-- −200 -->
      <defs>
       <path d="M 19.1875 8.296875 
L 53.609375 8.296875 
L 53.609375 0 
L 7.328125 0 
L 7.328125 8.296875 
Q 12.9375 14.109375 22.625 23.890625 
Q 32.328125 33.6875 34.8125 36.53125 
Q 39.546875 41.84375 41.421875 45.53125 
Q 43.3125 49.21875 43.3125 52.78125 
Q 43.3125 58.59375 39.234375 62.25 
Q 35.15625 65.921875 28.609375 65.921875 
Q 23.96875 65.921875 18.8125 64.3125 
Q 13.671875 62.703125 7.8125 59.421875 
L 7.8125 69.390625 
Q 13.765625 71.78125 18.9375 73 
Q 24.125 74.21875 28.421875 74.21875 
Q 39.75 74.21875 46.484375 68.546875 
Q 53.21875 62.890625 53.21875 53.421875 
Q 53.21875 48.921875 51.53125 44.890625 
Q 49.859375 40.875 45.40625 35.40625 
Q 44.1875 33.984375 37.640625 27.21875 
Q 31.109375 20.453125 19.1875 8.296875 
z
" id="DejaVuSans-50"/>
      </defs>
      <g transform="translate(217.859524 315.270437)scale(0.1 -0.1)">
       <use xlink:href="#DejaVuSans-8722"/>
       <use x="83.789062" xlink:href="#DejaVuSans-50"/>
       <use x="147.412109" xlink:href="#DejaVuSans-48"/>
       <use x="211.035156" xlink:href="#DejaVuSans-48"/>
      </g>
     </g>
    </g>
    <g id="xtick_4">
     <g id="line2d_7">
      <path clip-path="url(#p2c8afe4ae6)" d="M 295.838639 300.672 
L 295.838639 6.912 
" style="fill:none;stroke:#808080;stroke-linecap:square;"/>
     </g>
     <g id="line2d_8">
      <g>
       <use style="stroke:#000000;stroke-width:0.8;" x="295.838639" xlink:href="#md9313a6ec2" y="300.672"/>
      </g>
     </g>
     <g id="text_4">
      <!-- −100 -->
      <defs>
       <path d="M 12.40625 8.296875 
L 28.515625 8.296875 
L 28.515625 63.921875 
L 10.984375 60.40625 
L 10.984375 69.390625 
L 28.421875 72.90625 
L 38.28125 72.90625 
L 38.28125 8.296875 
L 54.390625 8.296875 
L 54.390625 0 
L 12.40625 0 
z
" id="DejaVuSans-49"/>
      </defs>
      <g transform="translate(282.105046 315.270437)scale(0.1 -0.1)">
       <use xlink:href="#DejaVuSans-8722"/>
       <use x="83.789062" xlink:href="#DejaVuSans-49"/>
       <use x="147.412109" xlink:href="#DejaVuSans-48"/>
       <use x="211.035156" xlink:href="#DejaVuSans-48"/>
      </g>
     </g>
    </g>
    <g id="xtick_5">
     <g id="line2d_9">
      <path clip-path="url(#p2c8afe4ae6)" d="M 360.084161 300.672 
L 360.084161 6.912 
" style="fill:none;stroke:#808080;stroke-linecap:square;"/>
     </g>
     <g id="line2d_10">
      <g>
       <use style="stroke:#000000;stroke-width:0.8;" x="360.084161" xlink:href="#md9313a6ec2" y="300.672"/>
      </g>
     </g>
     <g id="text_5">
      <!-- 0 -->
      <g transform="translate(356.902911 315.270437)scale(0.1 -0.1)">
       <use xlink:href="#DejaVuSans-48"/>
      </g>
     </g>
    </g>
    <g id="xtick_6">
     <g id="line2d_11">
      <path clip-path="url(#p2c8afe4ae6)" d="M 424.329683 300.672 
L 424.329683 6.912 
" style="fill:none;stroke:#808080;stroke-linecap:square;"/>
     </g>
     <g id="line2d_12">
      <g>
       <use style="stroke:#000000;stroke-width:0.8;" x="424.329683" xlink:href="#md9313a6ec2" y="300.672"/>
      </g>
     </g>
     <g id="text_6">
      <!-- 100 -->
      <g transform="translate(414.785933 315.270437)scale(0.1 -0.1)">
       <use xlink:href="#DejaVuSans-49"/>
       <use x="63.623047" xlink:href="#DejaVuSans-48"/>
       <use x="127.246094" xlink:href="#DejaVuSans-48"/>
      </g>
     </g>
    </g>
    <g id="text_7">
     <!-- East (Unit:m) -->
     <defs>
      <path d="M 9.8125 72.90625 
L 55.90625 72.90625 
L 55.90625 64.59375 
L 19.671875 64.59375 
L 19.671875 43.015625 
L 54.390625 43.015625 
L 54.390625 34.71875 
L 19.671875 34.71875 
L 19.671875 8.296875 
L 56.78125 8.296875 
L 56.78125 0 
L 9.8125 0 
z
" id="DejaVuSans-69"/>
      <path d="M 34.28125 27.484375 
Q 23.390625 27.484375 19.1875 25 
Q 14.984375 22.515625 14.984375 16.5 
Q 14.984375 11.71875 18.140625 8.90625 
Q 21.296875 6.109375 26.703125 6.109375 
Q 34.1875 6.109375 38.703125 11.40625 
Q 43.21875 16.703125 43.21875 25.484375 
L 43.21875 27.484375 
z
M 52.203125 31.203125 
L 52.203125 0 
L 43.21875 0 
L 43.21875 8.296875 
Q 40.140625 3.328125 35.546875 0.953125 
Q 30.953125 -1.421875 24.3125 -1.421875 
Q 15.921875 -1.421875 10.953125 3.296875 
Q 6 8.015625 6 15.921875 
Q 6 25.140625 12.171875 29.828125 
Q 18.359375 34.515625 30.609375 34.515625 
L 43.21875 34.515625 
L 43.21875 35.40625 
Q 43.21875 41.609375 39.140625 45 
Q 35.0625 48.390625 27.6875 48.390625 
Q 23 48.390625 18.546875 47.265625 
Q 14.109375 46.140625 10.015625 43.890625 
L 10.015625 52.203125 
Q 14.9375 54.109375 19.578125 55.046875 
Q 24.21875 56 28.609375 56 
Q 40.484375 56 46.34375 49.84375 
Q 52.203125 43.703125 52.203125 31.203125 
z
" id="DejaVuSans-97"/>
      <path d="M 44.28125 53.078125 
L 44.28125 44.578125 
Q 40.484375 46.53125 36.375 47.5 
Q 32.28125 48.484375 27.875 48.484375 
Q 21.1875 48.484375 17.84375 46.4375 
Q 14.5 44.390625 14.5 40.28125 
Q 14.5 37.15625 16.890625 35.375 
Q 19.28125 33.59375 26.515625 31.984375 
L 29.59375 31.296875 
Q 39.15625 29.25 43.1875 25.515625 
Q 47.21875 21.78125 47.21875 15.09375 
Q 47.21875 7.46875 41.1875 3.015625 
Q 35.15625 -1.421875 24.609375 -1.421875 
Q 20.21875 -1.421875 15.453125 -0.5625 
Q 10.6875 0.296875 5.421875 2 
L 5.421875 11.28125 
Q 10.40625 8.6875 15.234375 7.390625 
Q 20.0625 6.109375 24.8125 6.109375 
Q 31.15625 6.109375 34.5625 8.28125 
Q 37.984375 10.453125 37.984375 14.40625 
Q 37.984375 18.0625 35.515625 20.015625 
Q 33.0625 21.96875 24.703125 23.78125 
L 21.578125 24.515625 
Q 13.234375 26.265625 9.515625 29.90625 
Q 5.8125 33.546875 5.8125 39.890625 
Q 5.8125 47.609375 11.28125 51.796875 
Q 16.75 56 26.8125 56 
Q 31.78125 56 36.171875 55.265625 
Q 40.578125 54.546875 44.28125 53.078125 
z
" id="DejaVuSans-115"/>
      <path d="M 18.3125 70.21875 
L 18.3125 54.6875 
L 36.8125 54.6875 
L 36.8125 47.703125 
L 18.3125 47.703125 
L 18.3125 18.015625 
Q 18.3125 11.328125 20.140625 9.421875 
Q 21.96875 7.515625 27.59375 7.515625 
L 36.8125 7.515625 
L 36.8125 0 
L 27.59375 0 
Q 17.1875 0 13.234375 3.875 
Q 9.28125 7.765625 9.28125 18.015625 
L 9.28125 47.703125 
L 2.6875 47.703125 
L 2.6875 54.6875 
L 9.28125 54.6875 
L 9.28125 70.21875 
z
" id="DejaVuSans-116"/>
      <path id="DejaVuSans-32"/>
      <path d="M 31 75.875 
Q 24.46875 64.65625 21.28125 53.65625 
Q 18.109375 42.671875 18.109375 31.390625 
Q 18.109375 20.125 21.3125 9.0625 
Q 24.515625 -2 31 -13.1875 
L 23.1875 -13.1875 
Q 15.875 -1.703125 12.234375 9.375 
Q 8.59375 20.453125 8.59375 31.390625 
Q 8.59375 42.28125 12.203125 53.3125 
Q 15.828125 64.359375 23.1875 75.875 
z
" id="DejaVuSans-40"/>
      <path d="M 8.6875 72.90625 
L 18.609375 72.90625 
L 18.609375 28.609375 
Q 18.609375 16.890625 22.84375 11.734375 
Q 27.09375 6.59375 36.625 6.59375 
Q 46.09375 6.59375 50.34375 11.734375 
Q 54.59375 16.890625 54.59375 28.609375 
L 54.59375 72.90625 
L 64.5 72.90625 
L 64.5 27.390625 
Q 64.5 13.140625 57.4375 5.859375 
Q 50.390625 -1.421875 36.625 -1.421875 
Q 22.796875 -1.421875 15.734375 5.859375 
Q 8.6875 13.140625 8.6875 27.390625 
z
" id="DejaVuSans-85"/>
      <path d="M 54.890625 33.015625 
L 54.890625 0 
L 45.90625 0 
L 45.90625 32.71875 
Q 45.90625 40.484375 42.875 44.328125 
Q 39.84375 48.1875 33.796875 48.1875 
Q 26.515625 48.1875 22.3125 43.546875 
Q 18.109375 38.921875 18.109375 30.90625 
L 18.109375 0 
L 9.078125 0 
L 9.078125 54.6875 
L 18.109375 54.6875 
L 18.109375 46.1875 
Q 21.34375 51.125 25.703125 53.5625 
Q 30.078125 56 35.796875 56 
Q 45.21875 56 50.046875 50.171875 
Q 54.890625 44.34375 54.890625 33.015625 
z
" id="DejaVuSans-110"/>
      <path d="M 9.421875 54.6875 
L 18.40625 54.6875 
L 18.40625 0 
L 9.421875 0 
z
M 9.421875 75.984375 
L 18.40625 75.984375 
L 18.40625 64.59375 
L 9.421875 64.59375 
z
" id="DejaVuSans-105"/>
      <path d="M 11.71875 12.40625 
L 22.015625 12.40625 
L 22.015625 0 
L 11.71875 0 
z
M 11.71875 51.703125 
L 22.015625 51.703125 
L 22.015625 39.3125 
L 11.71875 39.3125 
z
" id="DejaVuSans-58"/>
      <path d="M 52 44.1875 
Q 55.375 50.25 60.0625 53.125 
Q 64.75 56 71.09375 56 
Q 79.640625 56 84.28125 50.015625 
Q 88.921875 44.046875 88.921875 33.015625 
L 88.921875 0 
L 79.890625 0 
L 79.890625 32.71875 
Q 79.890625 40.578125 77.09375 44.375 
Q 74.3125 48.1875 68.609375 48.1875 
Q 61.625 48.1875 57.5625 43.546875 
Q 53.515625 38.921875 53.515625 30.90625 
L 53.515625 0 
L 44.484375 0 
L 44.484375 32.71875 
Q 44.484375 40.625 41.703125 44.40625 
Q 38.921875 48.1875 33.109375 48.1875 
Q 26.21875 48.1875 22.15625 43.53125 
Q 18.109375 38.875 18.109375 30.90625 
L 18.109375 0 
L 9.078125 0 
L 9.078125 54.6875 
L 18.109375 54.6875 
L 18.109375 46.1875 
Q 21.1875 51.21875 25.484375 53.609375 
Q 29.78125 56 35.6875 56 
Q 41.65625 56 45.828125 52.96875 
Q 50 49.953125 52 44.1875 
z
" id="DejaVuSans-109"/>
      <path d="M 8.015625 75.875 
L 15.828125 75.875 
Q 23.140625 64.359375 26.78125 53.3125 
Q 30.421875 42.28125 30.421875 31.390625 
Q 30.421875 20.453125 26.78125 9.375 
Q 23.140625 -1.703125 15.828125 -13.1875 
L 8.015625 -13.1875 
Q 14.5 -2 17.703125 9.0625 
Q 20.90625 20.125 20.90625 31.390625 
Q 20.90625 42.671875 17.703125 53.65625 
Q 14.5 64.65625 8.015625 75.875 
z
" id="DejaVuSans-41"/>
     </defs>
     <g transform="translate(226.189063 328.948562)scale(0.1 -0.1)">
      <use xlink:href="#DejaVuSans-69"/>
      <use x="63.183594" xlink:href="#DejaVuSans-97"/>
      <use x="124.462891" xlink:href="#DejaVuSans-115"/>
      <use x="176.5625" xlink:href="#DejaVuSans-116"/>
      <use x="215.771484" xlink:href="#DejaVuSans-32"/>
      <use x="247.558594" xlink:href="#DejaVuSans-40"/>
      <use x="286.572266" xlink:href="#DejaVuSans-85"/>
      <use x="359.765625" xlink:href="#DejaVuSans-110"/>
      <use x="423.144531" xlink:href="#DejaVuSans-105"/>
      <use x="450.927734" xlink:href="#DejaVuSans-116"/>
      <use x="490.136719" xlink:href="#DejaVuSans-58"/>
      <use x="523.828125" xlink:href="#DejaVuSans-109"/>
      <use x="621.240234" xlink:href="#DejaVuSans-41"/>
     </g>
    </g>
   </g>
   <g id="matplotlib.axis_2">
    <g id="ytick_1">
     <g id="line2d_13">
      <path clip-path="url(#p2c8afe4ae6)" d="M 66.816 286.607408 
L 451.584 286.607408 
" style="fill:none;stroke:#808080;stroke-linecap:square;"/>
     </g>
     <g id="line2d_14">
      <defs>
       <path d="M 0 0 
L -3.5 0 
" id="m92a83818a4" style="stroke:#000000;stroke-width:0.8;"/>
      </defs>
      <g>
       <use style="stroke:#000000;stroke-width:0.8;" x="66.816" xlink:href="#m92a83818a4" y="286.607408"/>
      </g>
     </g>
     <g id="text_8">
      <!-- −75 -->
      <defs>
       <path d="M 8.203125 72.90625 
L 55.078125 72.90625 
L 55.078125 68.703125 
L 28.609375 0 
L 18.3125 0 
L 43.21875 64.59375 
L 8.203125 64.59375 
z
" id="DejaVuSans-55"/>
       <path d="M 10.796875 72.90625 
L 49.515625 72.90625 
L 49.515625 64.59375 
L 19.828125 64.59375 
L 19.828125 46.734375 
Q 21.96875 47.46875 24.109375 47.828125 
Q 26.265625 48.1875 28.421875 48.1875 
Q 40.625 48.1875 47.75 41.5 
Q 54.890625 34.8125 54.890625 23.390625 
Q 54.890625 11.625 47.5625 5.09375 
Q 40.234375 -1.421875 26.90625 -1.421875 
Q 22.3125 -1.421875 17.546875 -0.640625 
Q 12.796875 0.140625 7.71875 1.703125 
L 7.71875 11.625 
Q 12.109375 9.234375 16.796875 8.0625 
Q 21.484375 6.890625 26.703125 6.890625 
Q 35.15625 6.890625 40.078125 11.328125 
Q 45.015625 15.765625 45.015625 23.390625 
Q 45.015625 31 40.078125 35.4375 
Q 35.15625 39.890625 26.703125 39.890625 
Q 22.75 39.890625 18.8125 39.015625 
Q 14.890625 38.140625 10.796875 36.28125 
z
" id="DejaVuSans-53"/>
      </defs>
      <g transform="translate(38.711313 290.406627)scale(0.1 -0.1)">
       <use xlink:href="#DejaVuSans-8722"/>
       <use x="83.789062" xlink:href="#DejaVuSans-55"/>
       <use x="147.412109" xlink:href="#DejaVuSans-53"/>
      </g>
     </g>
    </g>
    <g id="ytick_2">
     <g id="line2d_15">
      <path clip-path="url(#p2c8afe4ae6)" d="M 66.816 251.047704 
L 451.584 251.047704 
" style="fill:none;stroke:#808080;stroke-linecap:square;"/>
     </g>
     <g id="line2d_16">
      <g>
       <use style="stroke:#000000;stroke-width:0.8;" x="66.816" xlink:href="#m92a83818a4" y="251.047704"/>
      </g>
     </g>
     <g id="text_9">
      <!-- −50 -->
      <g transform="translate(38.711313 254.846923)scale(0.1 -0.1)">
       <use xlink:href="#DejaVuSans-8722"/>
       <use x="83.789062" xlink:href="#DejaVuSans-53"/>
       <use x="147.412109" xlink:href="#DejaVuSans-48"/>
      </g>
     </g>
    </g>
    <g id="ytick_3">
     <g id="line2d_17">
      <path clip-path="url(#p2c8afe4ae6)" d="M 66.816 215.488 
L 451.584 215.488 
" style="fill:none;stroke:#808080;stroke-linecap:square;"/>
     </g>
     <g id="line2d_18">
      <g>
       <use style="stroke:#000000;stroke-width:0.8;" x="66.816" xlink:href="#m92a83818a4" y="215.488"/>
      </g>
     </g>
     <g id="text_10">
      <!-- −25 -->
      <g transform="translate(38.711313 219.287219)scale(0.1 -0.1)">
       <use xlink:href="#DejaVuSans-8722"/>
       <use x="83.789062" xlink:href="#DejaVuSans-50"/>
       <use x="147.412109" xlink:href="#DejaVuSans-53"/>
      </g>
     </g>
    </g>
    <g id="ytick_4">
     <g id="line2d_19">
      <path clip-path="url(#p2c8afe4ae6)" d="M 66.816 179.928296 
L 451.584 179.928296 
" style="fill:none;stroke:#808080;stroke-linecap:square;"/>
     </g>
     <g id="line2d_20">
      <g>
       <use style="stroke:#000000;stroke-width:0.8;" x="66.816" xlink:href="#m92a83818a4" y="179.928296"/>
      </g>
     </g>
     <g id="text_11">
      <!-- 0 -->
      <g transform="translate(53.4535 183.727515)scale(0.1 -0.1)">
       <use xlink:href="#DejaVuSans-48"/>
      </g>
     </g>
    </g>
    <g id="ytick_5">
     <g id="line2d_21">
      <path clip-path="url(#p2c8afe4ae6)" d="M 66.816 144.368593 
L 451.584 144.368593 
" style="fill:none;stroke:#808080;stroke-linecap:square;"/>
     </g>
     <g id="line2d_22">
      <g>
       <use style="stroke:#000000;stroke-width:0.8;" x="66.816" xlink:href="#m92a83818a4" y="144.368593"/>
      </g>
     </g>
     <g id="text_12">
      <!-- 25 -->
      <g transform="translate(47.091 148.167811)scale(0.1 -0.1)">
       <use xlink:href="#DejaVuSans-50"/>
       <use x="63.623047" xlink:href="#DejaVuSans-53"/>
      </g>
     </g>
    </g>
    <g id="ytick_6">
     <g id="line2d_23">
      <path clip-path="url(#p2c8afe4ae6)" d="M 66.816 108.808889 
L 451.584 108.808889 
" style="fill:none;stroke:#808080;stroke-linecap:square;"/>
     </g>
     <g id="line2d_24">
      <g>
       <use style="stroke:#000000;stroke-width:0.8;" x="66.816" xlink:href="#m92a83818a4" y="108.808889"/>
      </g>
     </g>
     <g id="text_13">
      <!-- 50 -->
      <g transform="translate(47.091 112.608107)scale(0.1 -0.1)">
       <use xlink:href="#DejaVuSans-53"/>
       <use x="63.623047" xlink:href="#DejaVuSans-48"/>
      </g>
     </g>
    </g>
    <g id="ytick_7">
     <g id="line2d_25">
      <path clip-path="url(#p2c8afe4ae6)" d="M 66.816 73.249185 
L 451.584 73.249185 
" style="fill:none;stroke:#808080;stroke-linecap:square;"/>
     </g>
     <g id="line2d_26">
      <g>
       <use style="stroke:#000000;stroke-width:0.8;" x="66.816" xlink:href="#m92a83818a4" y="73.249185"/>
      </g>
     </g>
     <g id="text_14">
      <!-- 75 -->
      <g transform="translate(47.091 77.048404)scale(0.1 -0.1)">
       <use xlink:href="#DejaVuSans-55"/>
       <use x="63.623047" xlink:href="#DejaVuSans-53"/>
      </g>
     </g>
    </g>
    <g id="ytick_8">
     <g id="line2d_27">
      <path clip-path="url(#p2c8afe4ae6)" d="M 66.816 37.689481 
L 451.584 37.689481 
" style="fill:none;stroke:#808080;stroke-linecap:square;"/>
     </g>
     <g id="line2d_28">
      <g>
       <use style="stroke:#000000;stroke-width:0.8;" x="66.816" xlink:href="#m92a83818a4" y="37.689481"/>
      </g>
     </g>
     <g id="text_15">
      <!-- 100 -->
      <g transform="translate(40.7285 41.4887)scale(0.1 -0.1)">
       <use xlink:href="#DejaVuSans-49"/>
       <use x="63.623047" xlink:href="#DejaVuSans-48"/>
       <use x="127.246094" xlink:href="#DejaVuSans-48"/>
      </g>
     </g>
    </g>
    <g id="text_16">
     <!-- North (Unit:m) -->
     <defs>
      <path d="M 9.8125 72.90625 
L 23.09375 72.90625 
L 55.421875 11.921875 
L 55.421875 72.90625 
L 64.984375 72.90625 
L 64.984375 0 
L 51.703125 0 
L 19.390625 60.984375 
L 19.390625 0 
L 9.8125 0 
z
" id="DejaVuSans-78"/>
      <path d="M 30.609375 48.390625 
Q 23.390625 48.390625 19.1875 42.75 
Q 14.984375 37.109375 14.984375 27.296875 
Q 14.984375 17.484375 19.15625 11.84375 
Q 23.34375 6.203125 30.609375 6.203125 
Q 37.796875 6.203125 41.984375 11.859375 
Q 46.1875 17.53125 46.1875 27.296875 
Q 46.1875 37.015625 41.984375 42.703125 
Q 37.796875 48.390625 30.609375 48.390625 
z
M 30.609375 56 
Q 42.328125 56 49.015625 48.375 
Q 55.71875 40.765625 55.71875 27.296875 
Q 55.71875 13.875 49.015625 6.21875 
Q 42.328125 -1.421875 30.609375 -1.421875 
Q 18.84375 -1.421875 12.171875 6.21875 
Q 5.515625 13.875 5.515625 27.296875 
Q 5.515625 40.765625 12.171875 48.375 
Q 18.84375 56 30.609375 56 
z
" id="DejaVuSans-111"/>
      <path d="M 41.109375 46.296875 
Q 39.59375 47.171875 37.8125 47.578125 
Q 36.03125 48 33.890625 48 
Q 26.265625 48 22.1875 43.046875 
Q 18.109375 38.09375 18.109375 28.8125 
L 18.109375 0 
L 9.078125 0 
L 9.078125 54.6875 
L 18.109375 54.6875 
L 18.109375 46.1875 
Q 20.953125 51.171875 25.484375 53.578125 
Q 30.03125 56 36.53125 56 
Q 37.453125 56 38.578125 55.875 
Q 39.703125 55.765625 41.0625 55.515625 
z
" id="DejaVuSans-114"/>
      <path d="M 54.890625 33.015625 
L 54.890625 0 
L 45.90625 0 
L 45.90625 32.71875 
Q 45.90625 40.484375 42.875 44.328125 
Q 39.84375 48.1875 33.796875 48.1875 
Q 26.515625 48.1875 22.3125 43.546875 
Q 18.109375 38.921875 18.109375 30.90625 
L 18.109375 0 
L 9.078125 0 
L 9.078125 75.984375 
L 18.109375 75.984375 
L 18.109375 46.1875 
Q 21.34375 51.125 25.703125 53.5625 
Q 30.078125 56 35.796875 56 
Q 45.21875 56 50.046875 50.171875 
Q 54.890625 44.34375 54.890625 33.015625 
z
" id="DejaVuSans-104"/>
     </defs>
     <g transform="translate(32.631625 189.999031)rotate(-90)scale(0.1 -0.1)">
      <use xlink:href="#DejaVuSans-78"/>
      <use x="74.804688" xlink:href="#DejaVuSans-111"/>
      <use x="135.986328" xlink:href="#DejaVuSans-114"/>
      <use x="177.099609" xlink:href="#DejaVuSans-116"/>
      <use x="216.308594" xlink:href="#DejaVuSans-104"/>
      <use x="279.6875" xlink:href="#DejaVuSans-32"/>
      <use x="311.474609" xlink:href="#DejaVuSans-40"/>
      <use x="350.488281" xlink:href="#DejaVuSans-85"/>
      <use x="423.681641" xlink:href="#DejaVuSans-110"/>
      <use x="487.060547" xlink:href="#DejaVuSans-105"/>
      <use x="514.84375" xlink:href="#DejaVuSans-116"/>
      <use x="554.052734" xlink:href="#DejaVuSans-58"/>
      <use x="587.744141" xlink:href="#DejaVuSans-109"/>
      <use x="685.15625" xlink:href="#DejaVuSans-41"/>
     </g>
    </g>
   </g>
   <g id="line2d_29">
    <path clip-path="url(#p2c8afe4ae6)" d="M 429.292436 72.069542 
L 429.296795 72.109717 
L 429.198815 71.717677 
L 428.348661 69.402477 
L 422.436296 55.163759 
L 421.341166 52.658444 
L 420.034405 49.439885 
L 418.517376 46.22848 
L 415.87626 41.354295 
L 413.898508 38.315789 
L 412.794916 37.341825 
L 411.83899 36.387352 
L 410.690431 35.327693 
L 409.970442 34.961005 
L 408.676121 34.639312 
L 408.048146 34.725971 
L 407.489248 35.067628 
L 405.134501 37.387033 
L 404.465943 38.368014 
L 404.231709 39.091107 
L 403.843382 41.173871 
L 403.737746 42.942444 
L 403.843297 45.485169 
L 404.175036 47.667238 
L 405.031621 51.442483 
L 407.478966 60.631367 
L 410.73987 73.300196 
L 411.848063 78.773609 
L 413.598641 86.005242 
L 414.771528 90.988059 
L 416.762885 97.346855 
L 418.061284 100.667404 
L 419.021594 103.380975 
L 421.070441 109.71649 
L 421.462476 111.683073 
L 422.011463 116.569756 
L 422.094601 118.742318 
L 421.961649 122.620512 
L 421.45451 126.921693 
L 421.124647 128.618337 
L 420.238464 131.533856 
L 418.661628 134.834185 
L 415.944211 139.83975 
L 414.512996 141.854025 
L 413.065837 143.769239 
L 407.281977 150.833537 
L 406.21234 151.930793 
L 405.696044 152.900634 
L 403.269981 158.768596 
L 402.644839 160.930952 
L 401.987271 163.987766 
L 401.255471 168.555163 
L 401.010081 173.051851 
L 400.833755 175.432232 
L 400.517364 176.852275 
L 400.177278 177.522112 
L 399.37687 178.455582 
L 398.768869 178.876112 
L 398.0022 179.135544 
L 396.73069 179.352315 
L 395.497793 179.262998 
L 394.063169 179.253681 
L 390.436547 178.45843 
L 388.628832 178.658374 
L 384.819343 178.441699 
L 383.317347 178.733191 
L 382.414825 178.858496 
L 381.724607 178.75934 
L 379.316587 178.163045 
L 378.274916 178.183264 
L 377.273547 178.205476 
L 375.133158 178.017847 
L 373.563708 178.14427 
L 371.822029 178.085071 
L 369.705321 178.068842 
L 368.948113 178.037101 
L 367.421797 177.811846 
L 365.328726 178.076826 
L 364.464211 178.339688 
L 363.504865 178.681917 
L 362.822571 178.729997 
L 361.531463 178.735719 
L 359.601933 179.486077 
L 358.889247 179.936489 
L 357.255047 181.155838 
L 354.533401 182.814 
L 353.926996 183.481885 
L 353.354797 184.462437 
L 352.37162 186.637893 
L 350.788135 190.733909 
L 349.890844 192.098726 
L 349.06568 192.98647 
L 346.770822 194.845492 
L 344.965661 195.829296 
L 341.733406 197.9053 
L 340.967825 198.073567 
L 339.558443 198.380677 
L 338.671158 198.837268 
L 337.852805 199.52965 
L 337.032535 200.60616 
L 336.070935 202.217114 
L 335.200002 204.348255 
L 334.787812 206.046258 
L 333.976465 211.45942 
L 333.866487 214.693809 
L 333.678382 220.896691 
L 333.229928 225.379142 
L 332.631071 229.402721 
L 332.281351 232.372435 
L 331.85035 235.791838 
L 330.961393 240.376257 
L 330.361212 242.383301 
L 329.903638 243.314994 
L 329.640856 243.506076 
L 329.198119 243.481244 
L 328.18802 243.356072 
L 327.652338 243.545968 
L 326.79087 244.138603 
L 325.91682 244.886228 
L 324.672922 246.441899 
L 323.962756 247.543589 
L 322.735025 250.025712 
L 321.733566 251.804979 
L 319.39152 255.34035 
L 318.261569 257.238235 
L 315.609352 260.934571 
L 313.896692 262.60393 
L 312.346002 263.792866 
L 311.558506 264.350597 
L 311.006421 264.538006 
L 310.444535 264.487008 
L 309.508965 264.288986 
L 308.638114 264.381941 
L 307.651027 264.458071 
L 306.360438 264.487127 
L 305.26643 264.548099 
L 303.671623 264.508037 
L 301.666356 264.730329 
L 300.381525 264.720356 
L 299.20537 264.908279 
L 297.978316 265.145626 
L 296.207949 265.23754 
L 294.674128 265.060285 
L 293.173551 265.198237 
L 292.064705 265.251488 
L 290.089658 265.391495 
L 287.867153 265.60709 
L 284.875075 265.722056 
L 281.72278 266.101199 
L 279.700015 266.227129 
L 277.817286 266.483447 
L 273.50792 266.712157 
L 267.021752 267.171362 
L 264.600511 267.398008 
L 262.316914 267.506263 
L 261.053559 267.587546 
L 260.265661 267.706754 
L 258.915648 267.927793 
L 256.436335 268.09651 
L 252.003876 269.179707 
L 251.031317 269.414854 
L 250.038043 269.283958 
L 248.849346 269.101717 
L 247.468415 269.195678 
L 246.333971 269.511627 
L 245.560404 269.734971 
L 245.059436 269.666805 
L 244.404551 269.413722 
L 244.557946 269.529372 
L 244.645835 269.646847 
L 244.464211 269.267542 
L 244.185554 268.646176 
L 244.683636 269.566734 
L 244.648494 269.409605 
L 244.660161 269.591925 
L 244.718087 269.228305 
L 244.747448 269.098424 
L 244.574452 269.505346 
L 244.823913 269.221768 
L 245.325473 268.89922 
L 245.867279 268.85234 
L 247.063162 268.880864 
L 247.867787 269.017077 
L 249.204012 269.382054 
L 250.998195 269.282431 
L 253.316158 268.834187 
L 254.253246 268.619854 
L 255.615482 268.281356 
L 256.735855 267.905691 
L 259.637679 267.667701 
L 261.552558 267.755079 
L 266.609248 267.274207 
L 273.431627 266.848853 
L 274.528557 266.564463 
L 275.421469 266.328941 
L 276.56454 266.391991 
L 277.827697 266.386909 
L 279.869683 266.292683 
L 282.965237 266.373545 
L 286.495751 266.128351 
L 289.766336 266.690777 
L 291.340484 266.557689 
L 298.848176 265.627449 
L 300.252632 265.718766 
L 302.140816 265.735147 
L 303.489586 265.57446 
L 305.151005 265.259063 
L 307.041399 265.106503 
L 309.554592 264.597877 
L 310.587814 264.427244 
L 312.101273 264.306512 
L 312.816786 263.993431 
L 313.729505 263.294717 
L 314.524351 262.365149 
L 315.657433 260.902335 
L 316.62059 259.6178 
L 323.323024 248.850849 
L 324.741902 246.408876 
L 325.718436 244.918405 
L 326.461316 244.220831 
L 327.189572 243.888462 
L 330.031155 242.951392 
L 330.403935 242.594403 
L 330.749492 241.792934 
L 331.202173 240.043237 
L 331.284334 239.072091 
L 331.203471 237.35873 
L 330.888801 232.776116 
L 330.747764 230.245638 
L 330.748109 230.249595 
L 330.461907 227.529272 
L 330.464897 227.595607 
L 330.573257 226.769972 
L 331.645395 221.312061 
L 331.767903 219.155276 
L 331.651866 217.0143 
L 331.580172 214.268955 
L 331.672878 199.274266 
L 331.547632 196.724201 
L 331.747817 193.682991 
L 332.010167 191.759283 
L 331.898582 189.323585 
L 331.798772 186.380308 
L 331.78517 171.620479 
L 331.352646 139.998633 
L 331.398578 136.331511 
L 331.394448 133.22988 
L 331.362999 129.729121 
L 331.028193 124.563049 
L 331.271474 117.611134 
L 331.437933 114.445435 
L 330.74554 73.754008 
L 330.374524 71.641389 
L 329.926396 70.171617 
L 329.301416 68.714473 
L 328.749263 67.958435 
L 328.152645 67.52478 
L 326.734781 67.012176 
L 325.827518 66.921572 
L 322.584437 66.925693 
L 320.549716 66.92924 
L 315.032085 67.150462 
L 313.283025 67.01546 
L 310.829088 66.937496 
L 309.484186 66.765885 
L 304.118847 66.821171 
L 301.882714 66.443461 
L 299.846373 66.112589 
L 297.259983 66.282229 
L 295.96085 66.441578 
L 292.726088 66.381275 
L 290.269274 66.17961 
L 288.773788 65.901875 
L 287.637027 65.912954 
L 285.426043 65.975987 
L 284.739355 65.809933 
L 283.712044 65.541792 
L 282.560269 65.583664 
L 278.9775 65.584648 
L 278.100257 65.681363 
L 275.89702 66.164843 
L 273.453369 66.05376 
L 272.530653 66.046649 
L 271.872755 66.286174 
L 271.213235 66.800294 
L 270.295965 67.910425 
L 269.609492 69.12908 
L 268.818388 71.114262 
L 268.31655 73.010876 
L 268.057417 74.917178 
L 267.674189 80.147684 
L 267.561305 84.427839 
L 267.448651 98.880132 
L 267.002801 105.226413 
L 266.358888 109.160748 
L 265.836975 110.753177 
L 265.179383 111.990852 
L 262.654439 115.437944 
L 261.950462 116.045593 
L 260.872592 116.883404 
L 258.908129 118.943144 
L 257.34021 121.084451 
L 257.026554 121.397994 
L 256.692293 121.561411 
L 255.508344 121.583319 
L 254.327261 121.337663 
L 254.362819 121.335318 
L 253.483693 120.99239 
L 252.911398 120.775541 
L 252.31913 120.163226 
L 250.391334 117.523036 
L 249.44862 116.262687 
L 248.699857 115.624853 
L 247.985531 115.285892 
L 246.042904 114.832527 
L 245.100149 114.767633 
L 243.116452 114.826752 
L 240.572695 114.349521 
L 237.528734 113.467413 
L 236.393358 113.535033 
L 233.622111 113.826631 
L 232.40074 113.510532 
L 230.529606 113.109601 
L 228.295386 112.661932 
L 227.125359 112.20868 
L 226.216463 111.970025 
L 225.58661 111.726259 
L 224.089847 111.494023 
L 223.684558 111.088686 
L 223.452943 110.507461 
L 223.052386 108.603847 
L 222.735331 105.999998 
L 222.565837 102.698815 
L 222.414063 97.691522 
L 222.118982 94.777404 
L 221.666314 92.180621 
L 220.618679 88.076238 
L 218.502056 80.163683 
L 217.402752 77.468555 
L 216.012242 74.683129 
L 215.052695 73.265827 
L 214.298644 72.538069 
L 213.713407 72.264793 
L 211.972752 71.948887 
L 211.284441 72.062495 
L 210.353416 72.58919 
L 208.330896 73.681082 
L 207.615911 73.762283 
L 207.043136 73.58693 
L 204.18045 72.101783 
L 202.955287 71.631387 
L 202.108346 71.051481 
L 199.007915 68.431913 
L 198.052543 67.91755 
L 197.379941 67.77161 
L 195.900752 67.54072 
L 194.749863 67.28506 
L 193.908923 67.337777 
L 192.67771 67.467394 
L 191.671969 67.258413 
L 190.656498 67.061848 
L 188.932956 66.930917 
L 187.407526 66.884803 
L 181.66077 67.09854 
L 177.95311 67.385533 
L 176.314514 67.391583 
L 173.466714 67.632274 
L 172.643755 67.653106 
L 171.050485 67.765654 
L 159.983209 67.591092 
L 157.97814 67.965473 
L 154.790297 68.5741 
L 154.577343 68.35986 
L 153.610295 66.32421 
L 152.421818 65.050983 
L 151.764227 64.737619 
L 150.991284 64.697612 
L 150.156197 64.668568 
L 148.481655 64.588946 
L 147.186031 64.809842 
L 144.508492 65.109145 
L 137.32675 65.243619 
L 135.86799 65.274265 
L 133.68219 65.169552 
L 125.387922 65.478697 
L 124.584352 65.235754 
L 123.722636 65.020095 
L 122.268756 65.157514 
L 120.33259 65.562433 
L 119.454659 65.72012 
L 114.066942 65.699041 
L 112.707121 65.718368 
L 110.941197 65.515592 
L 106.66713 65.644806 
L 105.547757 65.787417 
L 104.441807 65.836988 
L 103.172905 65.818116 
L 100.601703 66.415636 
L 98.967738 66.357515 
L 97.256884 66.369876 
L 94.909686 66.209311 
L 93.714912 66.15789 
L 92.901994 66.161711 
L 90.912735 66.462066 
L 90.912735 66.462066 
" style="fill:none;stroke:#00ff00;stroke-linecap:square;stroke-width:3;"/>
   </g>
   <g id="line2d_30">
    <path clip-path="url(#p2c8afe4ae6)" d="M 429.272369 72.019277 
L 429.26884 71.967309 
L 429.270216 71.992962 
L 429.072948 71.349946 
L 426.846418 65.690724 
L 424.378616 60.10999 
L 419.66744 48.769669 
L 417.14706 43.789586 
L 414.417755 38.985948 
L 411.189757 35.765237 
L 408.030375 34.799755 
L 404.909839 37.534811 
L 403.704222 42.675294 
L 404.594376 49.278782 
L 406.373821 56.049981 
L 408.021327 62.896635 
L 409.855689 69.64614 
L 411.360374 76.526197 
L 414.669697 90.559492 
L 416.50079 96.341194 
L 418.775478 102.474148 
L 420.749907 108.611712 
L 421.972188 115.798808 
L 421.958592 123.502026 
L 420.704455 130.243005 
L 418.417978 135.504538 
L 415.87641 140.007507 
L 412.859551 144.025503 
L 409.690355 148.006285 
L 406.720966 151.264693 
L 404.154443 156.277581 
L 402.29929 161.966979 
L 401.091991 169.107295 
L 400.489049 176.879343 
L 398.266335 179.345448 
L 394.632423 179.739968 
L 391.193501 178.682065 
L 388.099337 178.631668 
L 384.799925 178.35562 
L 381.234038 178.396419 
L 377.464014 177.941885 
L 374.03144 178.015973 
L 367.275414 177.57402 
L 363.571904 178.628915 
L 360.357172 179.228609 
L 356.782798 181.24944 
L 353.61762 184.071157 
L 351.249497 189.650292 
L 348.334307 193.6497 
L 344.984138 195.662024 
L 341.454619 197.943409 
L 338.079138 199.229 
L 335.383423 203.796807 
L 333.965595 210.829875 
L 333.807337 218.072521 
L 333.244557 225.744082 
L 332.189821 232.935857 
L 330.939758 240.237308 
L 329.80077 243.327897 
L 327.043051 243.931915 
L 324.170035 247.306945 
L 321.825296 251.84418 
L 315.92952 260.56691 
L 312.653469 263.593388 
L 309.386255 264.601005 
L 302.425038 264.786114 
L 298.852731 264.87453 
L 295.351689 265.125138 
L 291.857722 265.157531 
L 288.267844 265.622495 
L 284.93373 265.75115 
L 281.460267 266.071049 
L 274.457415 266.370151 
L 270.788292 266.894747 
L 267.235894 267.124919 
L 263.632336 267.488928 
L 260.163704 267.631602 
L 256.587662 268.050541 
L 253.041741 268.99783 
L 250.204889 269.28074 
L 246.545483 269.235794 
L 244.298159 269.599058 
L 244.146777 268.897182 
L 244.339729 269.595164 
L 244.408747 269.269951 
L 245.236422 268.846443 
L 246.59247 268.59073 
L 249.810821 269.119741 
L 253.368569 268.581571 
L 256.77463 267.690933 
L 260.458289 267.718745 
L 267.382984 267.175976 
L 270.930515 267.115388 
L 274.461752 266.601408 
L 277.9026 266.314606 
L 281.339321 266.306111 
L 284.736177 266.128771 
L 288.251355 266.566636 
L 291.649057 266.563177 
L 295.227124 265.954699 
L 298.820352 265.620419 
L 302.327478 265.800108 
L 305.878054 265.359901 
L 309.369454 264.653533 
L 312.787178 264.090639 
L 316.043865 260.713823 
L 318.523338 256.96459 
L 323.955507 247.688696 
L 326.953278 243.866121 
L 329.991459 242.68735 
L 330.571874 241.897483 
L 330.964195 240.930212 
L 331.15287 237.696717 
L 330.811813 233.744104 
L 330.873937 232.084446 
L 330.482579 228.73775 
L 331.625914 217.929257 
L 331.65442 210.444904 
L 331.796406 203.027 
L 331.516382 195.142905 
L 331.871285 192.220424 
L 331.80501 186.586339 
L 331.903599 179.164773 
L 331.74357 163.613799 
L 331.429206 156.382147 
L 331.325291 132.644264 
L 330.99486 125.383072 
L 331.234072 117.406741 
L 331.299637 109.687448 
L 331.112925 101.479559 
L 331.130759 94.035538 
L 330.90965 86.429263 
L 330.892275 78.516833 
L 330.162565 71.073867 
L 327.787608 67.526625 
L 324.132284 67.045078 
L 320.629804 66.868193 
L 317.105621 66.980796 
L 313.529021 66.982591 
L 310.001339 66.816815 
L 306.4067 66.910296 
L 299.362932 66.290013 
L 292.454833 66.380742 
L 289.031387 66.006406 
L 285.496158 66.064181 
L 281.974205 65.609173 
L 278.420074 65.504676 
L 274.893005 66.106709 
L 271.534135 66.474757 
L 268.704269 71.058705 
L 267.770248 78.431114 
L 267.534788 86.052802 
L 267.526487 94.1449 
L 267.26621 101.858337 
L 266.316386 109.122218 
L 263.650702 114.159442 
L 260.468656 117.523509 
L 256.622539 121.908208 
L 254.385613 121.365118 
L 254.439061 121.378399 
L 253.653298 121.19358 
L 252.33408 120.452659 
L 250.079793 117.393737 
L 247.307748 115.286388 
L 244.063114 114.984015 
L 240.534729 114.440702 
L 237.911053 113.670429 
L 236.160055 113.679877 
L 233.627899 113.973123 
L 228.667704 112.692929 
L 227.39914 112.084235 
L 225.788184 111.549917 
L 224.822116 111.752209 
L 223.284597 110.172226 
L 222.565357 102.666465 
L 222.062255 94.752794 
L 220.550717 87.764192 
L 218.918093 81.543483 
L 216.606591 75.847402 
L 214.571585 72.812704 
L 212.152126 71.854003 
L 209.438579 73.16308 
L 206.361477 73.24896 
L 202.976088 71.60006 
L 199.636514 68.833082 
L 196.359595 67.751429 
L 192.73976 67.545883 
L 189.226077 67.018115 
L 185.595497 66.946069 
L 182.189585 67.137261 
L 178.633342 67.477042 
L 171.638327 67.795917 
L 168.14269 67.799806 
L 160.939716 67.394158 
L 155.269263 68.630762 
L 154.589377 68.553849 
L 154.348157 67.986888 
L 153.67369 66.720858 
L 150.637841 65.004795 
L 147.431216 64.7505 
L 143.561607 64.986843 
L 140.088259 65.073081 
L 136.561831 65.330784 
L 133.099704 65.309197 
L 126.077988 65.539268 
L 122.619748 65.241113 
L 119.255939 65.825107 
L 112.116935 65.586649 
L 108.798818 65.373588 
L 101.779809 65.750483 
L 98.351118 66.402718 
L 94.895863 66.314899 
L 91.318203 66.401656 
L 91.318203 66.401656 
" style="fill:none;stroke:#ff0000;stroke-linecap:square;stroke-width:1.5;"/>
   </g>
   <g id="patch_3">
    <path d="M 66.816 300.672 
L 66.816 6.912 
" style="fill:none;stroke:#000000;stroke-linecap:square;stroke-linejoin:miter;stroke-width:0.8;"/>
   </g>
   <g id="patch_4">
    <path d="M 451.584 300.672 
L 451.584 6.912 
" style="fill:none;stroke:#000000;stroke-linecap:square;stroke-linejoin:miter;stroke-width:0.8;"/>
   </g>
   <g id="patch_5">
    <path d="M 66.816 300.672 
L 451.584 300.672 
" style="fill:none;stroke:#000000;stroke-linecap:square;stroke-linejoin:miter;stroke-width:0.8;"/>
   </g>
   <g id="patch_6">
    <path d="M 66.816 6.912 
L 451.584 6.912 
" style="fill:none;stroke:#000000;stroke-linecap:square;stroke-linejoin:miter;stroke-width:0.8;"/>
   </g>
   <g id="legend_1">
    <g id="patch_7">
     <path d="M 73.816 295.672 
L 208.169125 295.672 
Q 210.169125 295.672 210.169125 293.672 
L 210.169125 250.637625 
Q 210.169125 248.637625 208.169125 248.637625 
L 73.816 248.637625 
Q 71.816 248.637625 71.816 250.637625 
L 71.816 293.672 
Q 71.816 295.672 73.816 295.672 
z
" style="fill:#ffffff;opacity:0.8;stroke:#cccccc;stroke-linejoin:miter;"/>
    </g>
    <g id="line2d_31">
     <path d="M 75.816 256.736063 
L 95.816 256.736063 
" style="fill:none;stroke:#00ff00;stroke-linecap:square;stroke-width:3;"/>
    </g>
    <g id="line2d_32"/>
    <g id="text_17">
     <!-- Ground truth -->
     <defs>
      <path d="M 59.515625 10.40625 
L 59.515625 29.984375 
L 43.40625 29.984375 
L 43.40625 38.09375 
L 69.28125 38.09375 
L 69.28125 6.78125 
Q 63.578125 2.734375 56.6875 0.65625 
Q 49.8125 -1.421875 42 -1.421875 
Q 24.90625 -1.421875 15.25 8.5625 
Q 5.609375 18.5625 5.609375 36.375 
Q 5.609375 54.25 15.25 64.234375 
Q 24.90625 74.21875 42 74.21875 
Q 49.125 74.21875 55.546875 72.453125 
Q 61.96875 70.703125 67.390625 67.28125 
L 67.390625 56.78125 
Q 61.921875 61.421875 55.765625 63.765625 
Q 49.609375 66.109375 42.828125 66.109375 
Q 29.4375 66.109375 22.71875 58.640625 
Q 16.015625 51.171875 16.015625 36.375 
Q 16.015625 21.625 22.71875 14.15625 
Q 29.4375 6.6875 42.828125 6.6875 
Q 48.046875 6.6875 52.140625 7.59375 
Q 56.25 8.5 59.515625 10.40625 
z
" id="DejaVuSans-71"/>
      <path d="M 8.5 21.578125 
L 8.5 54.6875 
L 17.484375 54.6875 
L 17.484375 21.921875 
Q 17.484375 14.15625 20.5 10.265625 
Q 23.53125 6.390625 29.59375 6.390625 
Q 36.859375 6.390625 41.078125 11.03125 
Q 45.3125 15.671875 45.3125 23.6875 
L 45.3125 54.6875 
L 54.296875 54.6875 
L 54.296875 0 
L 45.3125 0 
L 45.3125 8.40625 
Q 42.046875 3.421875 37.71875 1 
Q 33.40625 -1.421875 27.6875 -1.421875 
Q 18.265625 -1.421875 13.375 4.4375 
Q 8.5 10.296875 8.5 21.578125 
z
M 31.109375 56 
z
" id="DejaVuSans-117"/>
      <path d="M 45.40625 46.390625 
L 45.40625 75.984375 
L 54.390625 75.984375 
L 54.390625 0 
L 45.40625 0 
L 45.40625 8.203125 
Q 42.578125 3.328125 38.25 0.953125 
Q 33.9375 -1.421875 27.875 -1.421875 
Q 17.96875 -1.421875 11.734375 6.484375 
Q 5.515625 14.40625 5.515625 27.296875 
Q 5.515625 40.1875 11.734375 48.09375 
Q 17.96875 56 27.875 56 
Q 33.9375 56 38.25 53.625 
Q 42.578125 51.265625 45.40625 46.390625 
z
M 14.796875 27.296875 
Q 14.796875 17.390625 18.875 11.75 
Q 22.953125 6.109375 30.078125 6.109375 
Q 37.203125 6.109375 41.296875 11.75 
Q 45.40625 17.390625 45.40625 27.296875 
Q 45.40625 37.203125 41.296875 42.84375 
Q 37.203125 48.484375 30.078125 48.484375 
Q 22.953125 48.484375 18.875 42.84375 
Q 14.796875 37.203125 14.796875 27.296875 
z
" id="DejaVuSans-100"/>
     </defs>
     <g transform="translate(103.816 260.236063)scale(0.1 -0.1)">
      <use xlink:href="#DejaVuSans-71"/>
      <use x="77.490234" xlink:href="#DejaVuSans-114"/>
      <use x="116.353516" xlink:href="#DejaVuSans-111"/>
      <use x="177.535156" xlink:href="#DejaVuSans-117"/>
      <use x="240.914062" xlink:href="#DejaVuSans-110"/>
      <use x="304.292969" xlink:href="#DejaVuSans-100"/>
      <use x="367.769531" xlink:href="#DejaVuSans-32"/>
      <use x="399.556641" xlink:href="#DejaVuSans-116"/>
      <use x="438.765625" xlink:href="#DejaVuSans-114"/>
      <use x="479.878906" xlink:href="#DejaVuSans-117"/>
      <use x="543.257812" xlink:href="#DejaVuSans-116"/>
      <use x="582.466797" xlink:href="#DejaVuSans-104"/>
     </g>
    </g>
    <g id="line2d_33">
     <path d="M 75.816 271.414187 
L 95.816 271.414187 
" style="fill:none;stroke:#ff0000;stroke-linecap:square;stroke-width:1.5;"/>
    </g>
    <g id="line2d_34"/>
    <g id="text_18">
     <!-- Estimated trajectory -->
     <defs>
      <path d="M 56.203125 29.59375 
L 56.203125 25.203125 
L 14.890625 25.203125 
Q 15.484375 15.921875 20.484375 11.0625 
Q 25.484375 6.203125 34.421875 6.203125 
Q 39.59375 6.203125 44.453125 7.46875 
Q 49.3125 8.734375 54.109375 11.28125 
L 54.109375 2.78125 
Q 49.265625 0.734375 44.1875 -0.34375 
Q 39.109375 -1.421875 33.890625 -1.421875 
Q 20.796875 -1.421875 13.15625 6.1875 
Q 5.515625 13.8125 5.515625 26.8125 
Q 5.515625 40.234375 12.765625 48.109375 
Q 20.015625 56 32.328125 56 
Q 43.359375 56 49.78125 48.890625 
Q 56.203125 41.796875 56.203125 29.59375 
z
M 47.21875 32.234375 
Q 47.125 39.59375 43.09375 43.984375 
Q 39.0625 48.390625 32.421875 48.390625 
Q 24.90625 48.390625 20.390625 44.140625 
Q 15.875 39.890625 15.1875 32.171875 
z
" id="DejaVuSans-101"/>
      <path d="M 9.421875 54.6875 
L 18.40625 54.6875 
L 18.40625 -0.984375 
Q 18.40625 -11.421875 14.421875 -16.109375 
Q 10.453125 -20.796875 1.609375 -20.796875 
L -1.8125 -20.796875 
L -1.8125 -13.1875 
L 0.59375 -13.1875 
Q 5.71875 -13.1875 7.5625 -10.8125 
Q 9.421875 -8.453125 9.421875 -0.984375 
z
M 9.421875 75.984375 
L 18.40625 75.984375 
L 18.40625 64.59375 
L 9.421875 64.59375 
z
" id="DejaVuSans-106"/>
      <path d="M 48.78125 52.59375 
L 48.78125 44.1875 
Q 44.96875 46.296875 41.140625 47.34375 
Q 37.3125 48.390625 33.40625 48.390625 
Q 24.65625 48.390625 19.8125 42.84375 
Q 14.984375 37.3125 14.984375 27.296875 
Q 14.984375 17.28125 19.8125 11.734375 
Q 24.65625 6.203125 33.40625 6.203125 
Q 37.3125 6.203125 41.140625 7.25 
Q 44.96875 8.296875 48.78125 10.40625 
L 48.78125 2.09375 
Q 45.015625 0.34375 40.984375 -0.53125 
Q 36.96875 -1.421875 32.421875 -1.421875 
Q 20.0625 -1.421875 12.78125 6.34375 
Q 5.515625 14.109375 5.515625 27.296875 
Q 5.515625 40.671875 12.859375 48.328125 
Q 20.21875 56 33.015625 56 
Q 37.15625 56 41.109375 55.140625 
Q 45.0625 54.296875 48.78125 52.59375 
z
" id="DejaVuSans-99"/>
      <path d="M 32.171875 -5.078125 
Q 28.375 -14.84375 24.75 -17.8125 
Q 21.140625 -20.796875 15.09375 -20.796875 
L 7.90625 -20.796875 
L 7.90625 -13.28125 
L 13.1875 -13.28125 
Q 16.890625 -13.28125 18.9375 -11.515625 
Q 21 -9.765625 23.484375 -3.21875 
L 25.09375 0.875 
L 2.984375 54.6875 
L 12.5 54.6875 
L 29.59375 11.921875 
L 46.6875 54.6875 
L 56.203125 54.6875 
z
" id="DejaVuSans-121"/>
     </defs>
     <g transform="translate(103.816 274.914187)scale(0.1 -0.1)">
      <use xlink:href="#DejaVuSans-69"/>
      <use x="63.183594" xlink:href="#DejaVuSans-115"/>
      <use x="115.283203" xlink:href="#DejaVuSans-116"/>
      <use x="154.492188" xlink:href="#DejaVuSans-105"/>
      <use x="182.275391" xlink:href="#DejaVuSans-109"/>
      <use x="279.6875" xlink:href="#DejaVuSans-97"/>
      <use x="340.966797" xlink:href="#DejaVuSans-116"/>
      <use x="380.175781" xlink:href="#DejaVuSans-101"/>
      <use x="441.699219" xlink:href="#DejaVuSans-100"/>
      <use x="505.175781" xlink:href="#DejaVuSans-32"/>
      <use x="536.962891" xlink:href="#DejaVuSans-116"/>
      <use x="576.171875" xlink:href="#DejaVuSans-114"/>
      <use x="617.285156" xlink:href="#DejaVuSans-97"/>
      <use x="678.564453" xlink:href="#DejaVuSans-106"/>
      <use x="706.347656" xlink:href="#DejaVuSans-101"/>
      <use x="767.871094" xlink:href="#DejaVuSans-99"/>
      <use x="822.851562" xlink:href="#DejaVuSans-116"/>
      <use x="862.060547" xlink:href="#DejaVuSans-111"/>
      <use x="923.242188" xlink:href="#DejaVuSans-114"/>
      <use x="964.355469" xlink:href="#DejaVuSans-121"/>
     </g>
    </g>
    <g id="PathCollection_2">
     <g>
      <use style="fill:#bf00bf;stroke:#bf00bf;" x="85.816" xlink:href="#m657c384f7a" y="286.967312"/>
     </g>
    </g>
    <g id="text_19">
     <!-- Landmarks -->
     <defs>
      <path d="M 9.8125 72.90625 
L 19.671875 72.90625 
L 19.671875 8.296875 
L 55.171875 8.296875 
L 55.171875 0 
L 9.8125 0 
z
" id="DejaVuSans-76"/>
      <path d="M 9.078125 75.984375 
L 18.109375 75.984375 
L 18.109375 31.109375 
L 44.921875 54.6875 
L 56.390625 54.6875 
L 27.390625 29.109375 
L 57.625 0 
L 45.90625 0 
L 18.109375 26.703125 
L 18.109375 0 
L 9.078125 0 
z
" id="DejaVuSans-107"/>
     </defs>
     <g transform="translate(103.816 289.592312)scale(0.1 -0.1)">
      <use xlink:href="#DejaVuSans-76"/>
      <use x="55.712891" xlink:href="#DejaVuSans-97"/>
      <use x="116.992188" xlink:href="#DejaVuSans-110"/>
      <use x="180.371094" xlink:href="#DejaVuSans-100"/>
      <use x="243.847656" xlink:href="#DejaVuSans-109"/>
      <use x="341.259766" xlink:href="#DejaVuSans-97"/>
      <use x="402.539062" xlink:href="#DejaVuSans-114"/>
      <use x="443.652344" xlink:href="#DejaVuSans-107"/>
      <use x="501.5625" xlink:href="#DejaVuSans-115"/>
     </g>
    </g>
   </g>
  </g>
 </g>
 <defs>
  <clipPath id="p2c8afe4ae6">
   <rect height="293.76" width="384.768" x="66.816" y="6.912"/>
  </clipPath>
 </defs>
</svg>
