<?xml version="1.0" encoding="utf-8" standalone="no"?>
<!DOCTYPE svg PUBLIC "-//W3C//DTD SVG 1.1//EN"
  "http://www.w3.org/Graphics/SVG/1.1/DTD/svg11.dtd">
<!-- Created with matplotlib (https://matplotlib.org/) -->
<svg height="345.6pt" version="1.1" viewBox="0 0 460.8 345.6" width="460.8pt" xmlns="http://www.w3.org/2000/svg" xmlns:xlink="http://www.w3.org/1999/xlink">
 <defs>
  <style type="text/css">
*{stroke-linecap:butt;stroke-linejoin:round;}
  </style>
 </defs>
 <g id="figure_1">
  <g id="patch_1">
   <path d="M 0 345.6 
L 460.8 345.6 
L 460.8 0 
L 0 0 
z
" style="fill:#ffffff;"/>
  </g>
  <g id="axes_1">
   <g id="patch_2">
    <path d="M 66.816 300.672 
L 451.584 300.672 
L 451.584 6.912 
L 66.816 6.912 
z
" style="fill:#ffffff;"/>
   </g>
   <g id="PathCollection_1">
    <defs>
     <path d="M 0 0.25 
C 0.066301 0.25 0.129895 0.223658 0.176777 0.176777 
C 0.223658 0.129895 0.25 0.066301 0.25 0 
C 0.25 -0.066301 0.223658 -0.129895 0.176777 -0.176777 
C 0.129895 -0.223658 0.066301 -0.25 0 -0.25 
C -0.066301 -0.25 -0.129895 -0.223658 -0.176777 -0.176777 
C -0.223658 -0.129895 -0.25 -0.066301 -0.25 0 
C -0.25 0.066301 -0.223658 0.129895 -0.176777 0.176777 
C -0.129895 0.223658 -0.066301 0.25 0 0.25 
z
" id="m25d2b67a7e" style="stroke:#0000ff;"/>
    </defs>
    <g clip-path="url(#pb423e09b67)">
     <use style="fill:#0000ff;stroke:#0000ff;" x="432.250445" xlink:href="#m25d2b67a7e" y="71.516093"/>
     <use style="fill:#0000ff;stroke:#0000ff;" x="434.094545" xlink:href="#m25d2b67a7e" y="77.325047"/>
     <use style="fill:#0000ff;stroke:#0000ff;" x="422.351672" xlink:href="#m25d2b67a7e" y="86.816701"/>
     <use style="fill:#0000ff;stroke:#0000ff;" x="428.332805" xlink:href="#m25d2b67a7e" y="53.009793"/>
     <use style="fill:#0000ff;stroke:#0000ff;" x="420.508541" xlink:href="#m25d2b67a7e" y="80.75916"/>
     <use style="fill:#0000ff;stroke:#0000ff;" x="426.037854" xlink:href="#m25d2b67a7e" y="50.918839"/>
     <use style="fill:#0000ff;stroke:#0000ff;" x="418.641407" xlink:href="#m25d2b67a7e" y="74.650256"/>
     <use style="fill:#0000ff;stroke:#0000ff;" x="416.749749" xlink:href="#m25d2b67a7e" y="68.52922"/>
     <use style="fill:#0000ff;stroke:#0000ff;" x="424.375493" xlink:href="#m25d2b67a7e" y="44.822472"/>
     <use style="fill:#0000ff;stroke:#0000ff;" x="422.464362" xlink:href="#m25d2b67a7e" y="38.794736"/>
     <use style="fill:#0000ff;stroke:#0000ff;" x="414.894528" xlink:href="#m25d2b67a7e" y="62.491867"/>
     <use style="fill:#0000ff;stroke:#0000ff;" x="413.096144" xlink:href="#m25d2b67a7e" y="56.315501"/>
     <use style="fill:#0000ff;stroke:#0000ff;" x="420.625982" xlink:href="#m25d2b67a7e" y="32.520824"/>
     <use style="fill:#0000ff;stroke:#0000ff;" x="411.266494" xlink:href="#m25d2b67a7e" y="50.226586"/>
     <use style="fill:#0000ff;stroke:#0000ff;" x="410.273344" xlink:href="#m25d2b67a7e" y="47.098387"/>
     <use style="fill:#0000ff;stroke:#0000ff;" x="418.794867" xlink:href="#m25d2b67a7e" y="26.463052"/>
     <use style="fill:#0000ff;stroke:#0000ff;" x="409.442998" xlink:href="#m25d2b67a7e" y="44.196483"/>
     <use style="fill:#0000ff;stroke:#0000ff;" x="407.59467" xlink:href="#m25d2b67a7e" y="38.027039"/>
     <use style="fill:#0000ff;stroke:#0000ff;" x="416.924668" xlink:href="#m25d2b67a7e" y="20.471668"/>
     <use style="fill:#0000ff;stroke:#0000ff;" x="403.487609" xlink:href="#m25d2b67a7e" y="20.264727"/>
     <use style="fill:#0000ff;stroke:#0000ff;" x="400.579457" xlink:href="#m25d2b67a7e" y="24.682453"/>
     <use style="fill:#0000ff;stroke:#0000ff;" x="396.948202" xlink:href="#m25d2b67a7e" y="51.356738"/>
     <use style="fill:#0000ff;stroke:#0000ff;" x="396.38901" xlink:href="#m25d2b67a7e" y="56.502103"/>
     <use style="fill:#0000ff;stroke:#0000ff;" x="397.741758" xlink:href="#m25d2b67a7e" y="28.664478"/>
     <use style="fill:#0000ff;stroke:#0000ff;" x="397.564211" xlink:href="#m25d2b67a7e" y="54.83175"/>
     <use style="fill:#0000ff;stroke:#0000ff;" x="405.714365" xlink:href="#m25d2b67a7e" y="80.716332"/>
     <use style="fill:#0000ff;stroke:#0000ff;" x="407.600313" xlink:href="#m25d2b67a7e" y="86.841677"/>
     <use style="fill:#0000ff;stroke:#0000ff;" x="411.36645" xlink:href="#m25d2b67a7e" y="98.917574"/>
     <use style="fill:#0000ff;stroke:#0000ff;" x="413.193543" xlink:href="#m25d2b67a7e" y="104.892702"/>
     <use style="fill:#0000ff;stroke:#0000ff;" x="414.873865" xlink:href="#m25d2b67a7e" y="111.488663"/>
     <use style="fill:#0000ff;stroke:#0000ff;" x="420.83606" xlink:href="#m25d2b67a7e" y="115.444157"/>
     <use style="fill:#0000ff;stroke:#0000ff;" x="427.440945" xlink:href="#m25d2b67a7e" y="126.178445"/>
     <use style="fill:#0000ff;stroke:#0000ff;" x="421.283908" xlink:href="#m25d2b67a7e" y="133.968028"/>
     <use style="fill:#0000ff;stroke:#0000ff;" x="411.588402" xlink:href="#m25d2b67a7e" y="142.15807"/>
     <use style="fill:#0000ff;stroke:#0000ff;" x="410.680454" xlink:href="#m25d2b67a7e" y="155.288691"/>
     <use style="fill:#0000ff;stroke:#0000ff;" x="411.713114" xlink:href="#m25d2b67a7e" y="162.763631"/>
     <use style="fill:#0000ff;stroke:#0000ff;" x="403.324874" xlink:href="#m25d2b67a7e" y="153.451799"/>
     <use style="fill:#0000ff;stroke:#0000ff;" x="395.864681" xlink:href="#m25d2b67a7e" y="157.051188"/>
     <use style="fill:#0000ff;stroke:#0000ff;" x="401.80458" xlink:href="#m25d2b67a7e" y="183.292087"/>
     <use style="fill:#0000ff;stroke:#0000ff;" x="394.336946" xlink:href="#m25d2b67a7e" y="183.704273"/>
     <use style="fill:#0000ff;stroke:#0000ff;" x="391.505219" xlink:href="#m25d2b67a7e" y="174.68109"/>
     <use style="fill:#0000ff;stroke:#0000ff;" x="387.369426" xlink:href="#m25d2b67a7e" y="183.971902"/>
     <use style="fill:#0000ff;stroke:#0000ff;" x="385.246862" xlink:href="#m25d2b67a7e" y="181.720352"/>
     <use style="fill:#0000ff;stroke:#0000ff;" x="374.86643" xlink:href="#m25d2b67a7e" y="184.302741"/>
     <use style="fill:#0000ff;stroke:#0000ff;" x="374.972746" xlink:href="#m25d2b67a7e" y="181.833812"/>
     <use style="fill:#0000ff;stroke:#0000ff;" x="367.298274" xlink:href="#m25d2b67a7e" y="180.097743"/>
     <use style="fill:#0000ff;stroke:#0000ff;" x="366.406521" xlink:href="#m25d2b67a7e" y="179.322851"/>
     <use style="fill:#0000ff;stroke:#0000ff;" x="365.346364" xlink:href="#m25d2b67a7e" y="182.155202"/>
     <use style="fill:#0000ff;stroke:#0000ff;" x="356.5456" xlink:href="#m25d2b67a7e" y="170.85546"/>
     <use style="fill:#0000ff;stroke:#0000ff;" x="358.985921" xlink:href="#m25d2b67a7e" y="190.57547"/>
     <use style="fill:#0000ff;stroke:#0000ff;" x="348.798633" xlink:href="#m25d2b67a7e" y="181.396205"/>
     <use style="fill:#0000ff;stroke:#0000ff;" x="348.819534" xlink:href="#m25d2b67a7e" y="187.843166"/>
     <use style="fill:#0000ff;stroke:#0000ff;" x="355.42276" xlink:href="#m25d2b67a7e" y="204.774612"/>
     <use style="fill:#0000ff;stroke:#0000ff;" x="343.379843" xlink:href="#m25d2b67a7e" y="184.484441"/>
     <use style="fill:#0000ff;stroke:#0000ff;" x="344.981552" xlink:href="#m25d2b67a7e" y="212.803087"/>
     <use style="fill:#0000ff;stroke:#0000ff;" x="347.765603" xlink:href="#m25d2b67a7e" y="198.095772"/>
     <use style="fill:#0000ff;stroke:#0000ff;" x="349.796553" xlink:href="#m25d2b67a7e" y="213.664246"/>
     <use style="fill:#0000ff;stroke:#0000ff;" x="338.264215" xlink:href="#m25d2b67a7e" y="189.201064"/>
     <use style="fill:#0000ff;stroke:#0000ff;" x="337.765157" xlink:href="#m25d2b67a7e" y="186.138508"/>
     <use style="fill:#0000ff;stroke:#0000ff;" x="338.153549" xlink:href="#m25d2b67a7e" y="181.641082"/>
     <use style="fill:#0000ff;stroke:#0000ff;" x="329.382834" xlink:href="#m25d2b67a7e" y="193.803508"/>
     <use style="fill:#0000ff;stroke:#0000ff;" x="339.226714" xlink:href="#m25d2b67a7e" y="224.427123"/>
     <use style="fill:#0000ff;stroke:#0000ff;" x="328.976934" xlink:href="#m25d2b67a7e" y="228.253845"/>
     <use style="fill:#0000ff;stroke:#0000ff;" x="325.279762" xlink:href="#m25d2b67a7e" y="220.500749"/>
     <use style="fill:#0000ff;stroke:#0000ff;" x="328.387789" xlink:href="#m25d2b67a7e" y="245.722522"/>
     <use style="fill:#0000ff;stroke:#0000ff;" x="324.442202" xlink:href="#m25d2b67a7e" y="218.642382"/>
     <use style="fill:#0000ff;stroke:#0000ff;" x="332.437358" xlink:href="#m25d2b67a7e" y="253.059715"/>
     <use style="fill:#0000ff;stroke:#0000ff;" x="324.531248" xlink:href="#m25d2b67a7e" y="251.830574"/>
     <use style="fill:#0000ff;stroke:#0000ff;" x="326.242627" xlink:href="#m25d2b67a7e" y="248.766319"/>
     <use style="fill:#0000ff;stroke:#0000ff;" x="326.550807" xlink:href="#m25d2b67a7e" y="255.626504"/>
     <use style="fill:#0000ff;stroke:#0000ff;" x="323.586856" xlink:href="#m25d2b67a7e" y="261.059251"/>
     <use style="fill:#0000ff;stroke:#0000ff;" x="314.817482" xlink:href="#m25d2b67a7e" y="249.394167"/>
     <use style="fill:#0000ff;stroke:#0000ff;" x="323.768574" xlink:href="#m25d2b67a7e" y="273.182667"/>
     <use style="fill:#0000ff;stroke:#0000ff;" x="313.950767" xlink:href="#m25d2b67a7e" y="267.984395"/>
     <use style="fill:#0000ff;stroke:#0000ff;" x="318.70762" xlink:href="#m25d2b67a7e" y="270.668939"/>
     <use style="fill:#0000ff;stroke:#0000ff;" x="302.090576" xlink:href="#m25d2b67a7e" y="273.858816"/>
     <use style="fill:#0000ff;stroke:#0000ff;" x="315.955228" xlink:href="#m25d2b67a7e" y="273.816904"/>
     <use style="fill:#0000ff;stroke:#0000ff;" x="307.419151" xlink:href="#m25d2b67a7e" y="248.600827"/>
     <use style="fill:#0000ff;stroke:#0000ff;" x="293.779721" xlink:href="#m25d2b67a7e" y="273.368572"/>
     <use style="fill:#0000ff;stroke:#0000ff;" x="286.675972" xlink:href="#m25d2b67a7e" y="267.538201"/>
     <use style="fill:#0000ff;stroke:#0000ff;" x="285.787705" xlink:href="#m25d2b67a7e" y="272.851102"/>
     <use style="fill:#0000ff;stroke:#0000ff;" x="287.610311" xlink:href="#m25d2b67a7e" y="275.536749"/>
     <use style="fill:#0000ff;stroke:#0000ff;" x="280.76134" xlink:href="#m25d2b67a7e" y="273.75227"/>
     <use style="fill:#0000ff;stroke:#0000ff;" x="272.799412" xlink:href="#m25d2b67a7e" y="246.92113"/>
     <use style="fill:#0000ff;stroke:#0000ff;" x="269.618608" xlink:href="#m25d2b67a7e" y="273.760179"/>
     <use style="fill:#0000ff;stroke:#0000ff;" x="266.21684" xlink:href="#m25d2b67a7e" y="274.376928"/>
     <use style="fill:#0000ff;stroke:#0000ff;" x="271.218009" xlink:href="#m25d2b67a7e" y="246.963973"/>
     <use style="fill:#0000ff;stroke:#0000ff;" x="260.340414" xlink:href="#m25d2b67a7e" y="273.960581"/>
     <use style="fill:#0000ff;stroke:#0000ff;" x="269.206135" xlink:href="#m25d2b67a7e" y="287.319273"/>
     <use style="fill:#0000ff;stroke:#0000ff;" x="254.331238" xlink:href="#m25d2b67a7e" y="275.133934"/>
     <use style="fill:#0000ff;stroke:#0000ff;" x="243.875386" xlink:href="#m25d2b67a7e" y="276.824776"/>
     <use style="fill:#0000ff;stroke:#0000ff;" x="239.311683" xlink:href="#m25d2b67a7e" y="276.168474"/>
     <use style="fill:#0000ff;stroke:#0000ff;" x="239.9149" xlink:href="#m25d2b67a7e" y="271.546733"/>
     <use style="fill:#0000ff;stroke:#0000ff;" x="247.00102" xlink:href="#m25d2b67a7e" y="269.994014"/>
     <use style="fill:#0000ff;stroke:#0000ff;" x="249.811285" xlink:href="#m25d2b67a7e" y="276.087423"/>
     <use style="fill:#0000ff;stroke:#0000ff;" x="247.259929" xlink:href="#m25d2b67a7e" y="274.052771"/>
     <use style="fill:#0000ff;stroke:#0000ff;" x="329.738308" xlink:href="#m25d2b67a7e" y="244.584579"/>
     <use style="fill:#0000ff;stroke:#0000ff;" x="330.723142" xlink:href="#m25d2b67a7e" y="233.479905"/>
     <use style="fill:#0000ff;stroke:#0000ff;" x="326.313938" xlink:href="#m25d2b67a7e" y="222.600206"/>
     <use style="fill:#0000ff;stroke:#0000ff;" x="337.922661" xlink:href="#m25d2b67a7e" y="160.10673"/>
     <use style="fill:#0000ff;stroke:#0000ff;" x="329.493349" xlink:href="#m25d2b67a7e" y="155.135926"/>
     <use style="fill:#0000ff;stroke:#0000ff;" x="327.616815" xlink:href="#m25d2b67a7e" y="156.157741"/>
     <use style="fill:#0000ff;stroke:#0000ff;" x="329.692825" xlink:href="#m25d2b67a7e" y="146.076195"/>
     <use style="fill:#0000ff;stroke:#0000ff;" x="330.192199" xlink:href="#m25d2b67a7e" y="144.175294"/>
     <use style="fill:#0000ff;stroke:#0000ff;" x="337.771663" xlink:href="#m25d2b67a7e" y="142.480569"/>
     <use style="fill:#0000ff;stroke:#0000ff;" x="329.888594" xlink:href="#m25d2b67a7e" y="152.81242"/>
     <use style="fill:#0000ff;stroke:#0000ff;" x="326.299406" xlink:href="#m25d2b67a7e" y="151.457588"/>
     <use style="fill:#0000ff;stroke:#0000ff;" x="325.458286" xlink:href="#m25d2b67a7e" y="137.739196"/>
     <use style="fill:#0000ff;stroke:#0000ff;" x="326.143832" xlink:href="#m25d2b67a7e" y="142.128041"/>
     <use style="fill:#0000ff;stroke:#0000ff;" x="337.725602" xlink:href="#m25d2b67a7e" y="126.416399"/>
     <use style="fill:#0000ff;stroke:#0000ff;" x="329.394175" xlink:href="#m25d2b67a7e" y="100.669002"/>
     <use style="fill:#0000ff;stroke:#0000ff;" x="329.443088" xlink:href="#m25d2b67a7e" y="96.301111"/>
     <use style="fill:#0000ff;stroke:#0000ff;" x="339.008746" xlink:href="#m25d2b67a7e" y="89.316723"/>
     <use style="fill:#0000ff;stroke:#0000ff;" x="329.46224" xlink:href="#m25d2b67a7e" y="91.774247"/>
     <use style="fill:#0000ff;stroke:#0000ff;" x="323.151613" xlink:href="#m25d2b67a7e" y="79.447653"/>
     <use style="fill:#0000ff;stroke:#0000ff;" x="325.501486" xlink:href="#m25d2b67a7e" y="76.865011"/>
     <use style="fill:#0000ff;stroke:#0000ff;" x="329.040341" xlink:href="#m25d2b67a7e" y="72.125464"/>
     <use style="fill:#0000ff;stroke:#0000ff;" x="337.555968" xlink:href="#m25d2b67a7e" y="71.842981"/>
     <use style="fill:#0000ff;stroke:#0000ff;" x="329.05008" xlink:href="#m25d2b67a7e" y="51.4833"/>
     <use style="fill:#0000ff;stroke:#0000ff;" x="321.042579" xlink:href="#m25d2b67a7e" y="76.974645"/>
     <use style="fill:#0000ff;stroke:#0000ff;" x="330.710993" xlink:href="#m25d2b67a7e" y="48.392454"/>
     <use style="fill:#0000ff;stroke:#0000ff;" x="319.441359" xlink:href="#m25d2b67a7e" y="69.299404"/>
     <use style="fill:#0000ff;stroke:#0000ff;" x="308.703215" xlink:href="#m25d2b67a7e" y="69.19315"/>
     <use style="fill:#0000ff;stroke:#0000ff;" x="305.812618" xlink:href="#m25d2b67a7e" y="69.438261"/>
     <use style="fill:#0000ff;stroke:#0000ff;" x="305.218757" xlink:href="#m25d2b67a7e" y="79.794022"/>
     <use style="fill:#0000ff;stroke:#0000ff;" x="302.535864" xlink:href="#m25d2b67a7e" y="51.123817"/>
     <use style="fill:#0000ff;stroke:#0000ff;" x="297.809947" xlink:href="#m25d2b67a7e" y="68.863118"/>
     <use style="fill:#0000ff;stroke:#0000ff;" x="295.17854" xlink:href="#m25d2b67a7e" y="74.154188"/>
     <use style="fill:#0000ff;stroke:#0000ff;" x="287.114128" xlink:href="#m25d2b67a7e" y="68.719622"/>
     <use style="fill:#0000ff;stroke:#0000ff;" x="280.274654" xlink:href="#m25d2b67a7e" y="48.336516"/>
     <use style="fill:#0000ff;stroke:#0000ff;" x="276.34933" xlink:href="#m25d2b67a7e" y="68.586065"/>
     <use style="fill:#0000ff;stroke:#0000ff;" x="275.75781" xlink:href="#m25d2b67a7e" y="77.121938"/>
     <use style="fill:#0000ff;stroke:#0000ff;" x="274.240517" xlink:href="#m25d2b67a7e" y="47.727744"/>
     <use style="fill:#0000ff;stroke:#0000ff;" x="272.862344" xlink:href="#m25d2b67a7e" y="80.072925"/>
     <use style="fill:#0000ff;stroke:#0000ff;" x="273.430623" xlink:href="#m25d2b67a7e" y="85.680854"/>
     <use style="fill:#0000ff;stroke:#0000ff;" x="265.771074" xlink:href="#m25d2b67a7e" y="71.568781"/>
     <use style="fill:#0000ff;stroke:#0000ff;" x="272.19501" xlink:href="#m25d2b67a7e" y="82.727349"/>
     <use style="fill:#0000ff;stroke:#0000ff;" x="270.040582" xlink:href="#m25d2b67a7e" y="90.687741"/>
     <use style="fill:#0000ff;stroke:#0000ff;" x="274.349494" xlink:href="#m25d2b67a7e" y="90.341785"/>
     <use style="fill:#0000ff;stroke:#0000ff;" x="272.941297" xlink:href="#m25d2b67a7e" y="92.285848"/>
     <use style="fill:#0000ff;stroke:#0000ff;" x="271.260913" xlink:href="#m25d2b67a7e" y="91.042168"/>
     <use style="fill:#0000ff;stroke:#0000ff;" x="274.77033" xlink:href="#m25d2b67a7e" y="95.835881"/>
     <use style="fill:#0000ff;stroke:#0000ff;" x="259.096459" xlink:href="#m25d2b67a7e" y="84.495482"/>
     <use style="fill:#0000ff;stroke:#0000ff;" x="274.36743" xlink:href="#m25d2b67a7e" y="103.933196"/>
     <use style="fill:#0000ff;stroke:#0000ff;" x="275.495278" xlink:href="#m25d2b67a7e" y="105.16817"/>
     <use style="fill:#0000ff;stroke:#0000ff;" x="264.74386" xlink:href="#m25d2b67a7e" y="106.827502"/>
     <use style="fill:#0000ff;stroke:#0000ff;" x="274.324527" xlink:href="#m25d2b67a7e" y="108.354555"/>
     <use style="fill:#0000ff;stroke:#0000ff;" x="271.153255" xlink:href="#m25d2b67a7e" y="114.894239"/>
     <use style="fill:#0000ff;stroke:#0000ff;" x="274.137271" xlink:href="#m25d2b67a7e" y="115.564824"/>
     <use style="fill:#0000ff;stroke:#0000ff;" x="273.955679" xlink:href="#m25d2b67a7e" y="117.530752"/>
     <use style="fill:#0000ff;stroke:#0000ff;" x="271.962994" xlink:href="#m25d2b67a7e" y="122.045671"/>
     <use style="fill:#0000ff;stroke:#0000ff;" x="273.81093" xlink:href="#m25d2b67a7e" y="123.320573"/>
     <use style="fill:#0000ff;stroke:#0000ff;" x="256.916208" xlink:href="#m25d2b67a7e" y="124.687187"/>
     <use style="fill:#0000ff;stroke:#0000ff;" x="256.096225" xlink:href="#m25d2b67a7e" y="124.150398"/>
     <use style="fill:#0000ff;stroke:#0000ff;" x="255.768521" xlink:href="#m25d2b67a7e" y="112.572687"/>
     <use style="fill:#0000ff;stroke:#0000ff;" x="256.734529" xlink:href="#m25d2b67a7e" y="121.401524"/>
     <use style="fill:#0000ff;stroke:#0000ff;" x="253.184175" xlink:href="#m25d2b67a7e" y="110.060066"/>
     <use style="fill:#0000ff;stroke:#0000ff;" x="254.329246" xlink:href="#m25d2b67a7e" y="118.83464"/>
     <use style="fill:#0000ff;stroke:#0000ff;" x="251.157802" xlink:href="#m25d2b67a7e" y="110.641856"/>
     <use style="fill:#0000ff;stroke:#0000ff;" x="255.625132" xlink:href="#m25d2b67a7e" y="114.837638"/>
     <use style="fill:#0000ff;stroke:#0000ff;" x="248.669272" xlink:href="#m25d2b67a7e" y="122.146487"/>
     <use style="fill:#0000ff;stroke:#0000ff;" x="253.293585" xlink:href="#m25d2b67a7e" y="118.916347"/>
     <use style="fill:#0000ff;stroke:#0000ff;" x="247.259591" xlink:href="#m25d2b67a7e" y="110.158752"/>
     <use style="fill:#0000ff;stroke:#0000ff;" x="253.663023" xlink:href="#m25d2b67a7e" y="105.859871"/>
     <use style="fill:#0000ff;stroke:#0000ff;" x="248.910003" xlink:href="#m25d2b67a7e" y="110.329021"/>
     <use style="fill:#0000ff;stroke:#0000ff;" x="245.342739" xlink:href="#m25d2b67a7e" y="110.068883"/>
     <use style="fill:#0000ff;stroke:#0000ff;" x="243.387619" xlink:href="#m25d2b67a7e" y="110.066199"/>
     <use style="fill:#0000ff;stroke:#0000ff;" x="248.391352" xlink:href="#m25d2b67a7e" y="118.42059"/>
     <use style="fill:#0000ff;stroke:#0000ff;" x="239.512441" xlink:href="#m25d2b67a7e" y="110.224197"/>
     <use style="fill:#0000ff;stroke:#0000ff;" x="241.460295" xlink:href="#m25d2b67a7e" y="110.169133"/>
     <use style="fill:#0000ff;stroke:#0000ff;" x="239.314697" xlink:href="#m25d2b67a7e" y="119.881953"/>
     <use style="fill:#0000ff;stroke:#0000ff;" x="237.571349" xlink:href="#m25d2b67a7e" y="110.277163"/>
     <use style="fill:#0000ff;stroke:#0000ff;" x="250.974383" xlink:href="#m25d2b67a7e" y="118.513762"/>
     <use style="fill:#0000ff;stroke:#0000ff;" x="240.045535" xlink:href="#m25d2b67a7e" y="120.060142"/>
     <use style="fill:#0000ff;stroke:#0000ff;" x="235.131287" xlink:href="#m25d2b67a7e" y="119.204598"/>
     <use style="fill:#0000ff;stroke:#0000ff;" x="235.584678" xlink:href="#m25d2b67a7e" y="110.201625"/>
     <use style="fill:#0000ff;stroke:#0000ff;" x="230.019662" xlink:href="#m25d2b67a7e" y="110.878386"/>
     <use style="fill:#0000ff;stroke:#0000ff;" x="231.260186" xlink:href="#m25d2b67a7e" y="117.580853"/>
     <use style="fill:#0000ff;stroke:#0000ff;" x="229.39109" xlink:href="#m25d2b67a7e" y="116.93499"/>
     <use style="fill:#0000ff;stroke:#0000ff;" x="227.408498" xlink:href="#m25d2b67a7e" y="115.813628"/>
     <use style="fill:#0000ff;stroke:#0000ff;" x="225.551511" xlink:href="#m25d2b67a7e" y="115.383888"/>
     <use style="fill:#0000ff;stroke:#0000ff;" x="226.486987" xlink:href="#m25d2b67a7e" y="115.415744"/>
     <use style="fill:#0000ff;stroke:#0000ff;" x="225.31227" xlink:href="#m25d2b67a7e" y="111.203167"/>
     <use style="fill:#0000ff;stroke:#0000ff;" x="224.707072" xlink:href="#m25d2b67a7e" y="115.535422"/>
     <use style="fill:#0000ff;stroke:#0000ff;" x="233.278379" xlink:href="#m25d2b67a7e" y="118.046906"/>
     <use style="fill:#0000ff;stroke:#0000ff;" x="221.071979" xlink:href="#m25d2b67a7e" y="109.828673"/>
     <use style="fill:#0000ff;stroke:#0000ff;" x="221.257174" xlink:href="#m25d2b67a7e" y="101.815208"/>
     <use style="fill:#0000ff;stroke:#0000ff;" x="223.288858" xlink:href="#m25d2b67a7e" y="110.567088"/>
     <use style="fill:#0000ff;stroke:#0000ff;" x="224.355181" xlink:href="#m25d2b67a7e" y="87.97702"/>
     <use style="fill:#0000ff;stroke:#0000ff;" x="217.904251" xlink:href="#m25d2b67a7e" y="89.540941"/>
     <use style="fill:#0000ff;stroke:#0000ff;" x="223.519843" xlink:href="#m25d2b67a7e" y="83.680114"/>
     <use style="fill:#0000ff;stroke:#0000ff;" x="215.007212" xlink:href="#m25d2b67a7e" y="82.592923"/>
     <use style="fill:#0000ff;stroke:#0000ff;" x="212.451106" xlink:href="#m25d2b67a7e" y="81.545912"/>
     <use style="fill:#0000ff;stroke:#0000ff;" x="224.328781" xlink:href="#m25d2b67a7e" y="69.017565"/>
     <use style="fill:#0000ff;stroke:#0000ff;" x="226.150862" xlink:href="#m25d2b67a7e" y="72.378154"/>
     <use style="fill:#0000ff;stroke:#0000ff;" x="210.781261" xlink:href="#m25d2b67a7e" y="80.34776"/>
     <use style="fill:#0000ff;stroke:#0000ff;" x="216.787353" xlink:href="#m25d2b67a7e" y="69.021967"/>
     <use style="fill:#0000ff;stroke:#0000ff;" x="202.830976" xlink:href="#m25d2b67a7e" y="79.155827"/>
     <use style="fill:#0000ff;stroke:#0000ff;" x="196.804918" xlink:href="#m25d2b67a7e" y="53.196387"/>
     <use style="fill:#0000ff;stroke:#0000ff;" x="195.720682" xlink:href="#m25d2b67a7e" y="69.28317"/>
     <use style="fill:#0000ff;stroke:#0000ff;" x="193.365842" xlink:href="#m25d2b67a7e" y="66.097783"/>
     <use style="fill:#0000ff;stroke:#0000ff;" x="185.944289" xlink:href="#m25d2b67a7e" y="69.448605"/>
     <use style="fill:#0000ff;stroke:#0000ff;" x="181.305443" xlink:href="#m25d2b67a7e" y="87.278557"/>
     <use style="fill:#0000ff;stroke:#0000ff;" x="177.377312" xlink:href="#m25d2b67a7e" y="80.231463"/>
     <use style="fill:#0000ff;stroke:#0000ff;" x="176.143533" xlink:href="#m25d2b67a7e" y="69.407546"/>
     <use style="fill:#0000ff;stroke:#0000ff;" x="176.250626" xlink:href="#m25d2b67a7e" y="85.313649"/>
     <use style="fill:#0000ff;stroke:#0000ff;" x="167.461453" xlink:href="#m25d2b67a7e" y="53.58626"/>
     <use style="fill:#0000ff;stroke:#0000ff;" x="166.422799" xlink:href="#m25d2b67a7e" y="69.782664"/>
     <use style="fill:#0000ff;stroke:#0000ff;" x="155.519437" xlink:href="#m25d2b67a7e" y="70.037684"/>
     <use style="fill:#0000ff;stroke:#0000ff;" x="142.837279" xlink:href="#m25d2b67a7e" y="53.91641"/>
     <use style="fill:#0000ff;stroke:#0000ff;" x="144.496951" xlink:href="#m25d2b67a7e" y="70.046242"/>
     <use style="fill:#0000ff;stroke:#0000ff;" x="145.531856" xlink:href="#m25d2b67a7e" y="51.810614"/>
     <use style="fill:#0000ff;stroke:#0000ff;" x="144.781976" xlink:href="#m25d2b67a7e" y="51.472122"/>
     <use style="fill:#0000ff;stroke:#0000ff;" x="141.08042" xlink:href="#m25d2b67a7e" y="68.390832"/>
     <use style="fill:#0000ff;stroke:#0000ff;" x="134.512557" xlink:href="#m25d2b67a7e" y="70.512637"/>
     <use style="fill:#0000ff;stroke:#0000ff;" x="133.51418" xlink:href="#m25d2b67a7e" y="73.224522"/>
     <use style="fill:#0000ff;stroke:#0000ff;" x="137.3289" xlink:href="#m25d2b67a7e" y="76.393187"/>
     <use style="fill:#0000ff;stroke:#0000ff;" x="131.894483" xlink:href="#m25d2b67a7e" y="48.521506"/>
     <use style="fill:#0000ff;stroke:#0000ff;" x="124.383283" xlink:href="#m25d2b67a7e" y="70.662001"/>
     <use style="fill:#0000ff;stroke:#0000ff;" x="123.339309" xlink:href="#m25d2b67a7e" y="77.161717"/>
     <use style="fill:#0000ff;stroke:#0000ff;" x="118.310837" xlink:href="#m25d2b67a7e" y="76.206108"/>
     <use style="fill:#0000ff;stroke:#0000ff;" x="113.637872" xlink:href="#m25d2b67a7e" y="54.680176"/>
     <use style="fill:#0000ff;stroke:#0000ff;" x="114.437499" xlink:href="#m25d2b67a7e" y="70.927254"/>
     <use style="fill:#0000ff;stroke:#0000ff;" x="116.392808" xlink:href="#m25d2b67a7e" y="72.974766"/>
     <use style="fill:#0000ff;stroke:#0000ff;" x="104.314193" xlink:href="#m25d2b67a7e" y="71.191666"/>
     <use style="fill:#0000ff;stroke:#0000ff;" x="94.370322" xlink:href="#m25d2b67a7e" y="71.732468"/>
     <use style="fill:#0000ff;stroke:#0000ff;" x="84.305455" xlink:href="#m25d2b67a7e" y="71.931466"/>
    </g>
   </g>
   <g id="matplotlib.axis_1">
    <g id="xtick_1">
     <g id="line2d_1">
      <defs>
       <path d="M 0 0 
L 0 3.5 
" id="m3a0f266302" style="stroke:#000000;stroke-width:0.8;"/>
      </defs>
      <g>
       <use style="stroke:#000000;stroke-width:0.8;" x="103.102073" xlink:href="#m3a0f266302" y="300.672"/>
      </g>
     </g>
     <g id="text_1">
      <!-- −400 -->
      <defs>
       <path d="M 10.59375 35.5 
L 73.1875 35.5 
L 73.1875 27.203125 
L 10.59375 27.203125 
z
" id="DejaVuSans-8722"/>
       <path d="M 37.796875 64.3125 
L 12.890625 25.390625 
L 37.796875 25.390625 
z
M 35.203125 72.90625 
L 47.609375 72.90625 
L 47.609375 25.390625 
L 58.015625 25.390625 
L 58.015625 17.1875 
L 47.609375 17.1875 
L 47.609375 0 
L 37.796875 0 
L 37.796875 17.1875 
L 4.890625 17.1875 
L 4.890625 26.703125 
z
" id="DejaVuSans-52"/>
       <path d="M 31.78125 66.40625 
Q 24.171875 66.40625 20.328125 58.90625 
Q 16.5 51.421875 16.5 36.375 
Q 16.5 21.390625 20.328125 13.890625 
Q 24.171875 6.390625 31.78125 6.390625 
Q 39.453125 6.390625 43.28125 13.890625 
Q 47.125 21.390625 47.125 36.375 
Q 47.125 51.421875 43.28125 58.90625 
Q 39.453125 66.40625 31.78125 66.40625 
z
M 31.78125 74.21875 
Q 44.046875 74.21875 50.515625 64.515625 
Q 56.984375 54.828125 56.984375 36.375 
Q 56.984375 17.96875 50.515625 8.265625 
Q 44.046875 -1.421875 31.78125 -1.421875 
Q 19.53125 -1.421875 13.0625 8.265625 
Q 6.59375 17.96875 6.59375 36.375 
Q 6.59375 54.828125 13.0625 64.515625 
Q 19.53125 74.21875 31.78125 74.21875 
z
" id="DejaVuSans-48"/>
      </defs>
      <g transform="translate(89.36848 315.270437)scale(0.1 -0.1)">
       <use xlink:href="#DejaVuSans-8722"/>
       <use x="83.789062" xlink:href="#DejaVuSans-52"/>
       <use x="147.412109" xlink:href="#DejaVuSans-48"/>
       <use x="211.035156" xlink:href="#DejaVuSans-48"/>
      </g>
     </g>
    </g>
    <g id="xtick_2">
     <g id="line2d_2">
      <g>
       <use style="stroke:#000000;stroke-width:0.8;" x="167.347595" xlink:href="#m3a0f266302" y="300.672"/>
      </g>
     </g>
     <g id="text_2">
      <!-- −300 -->
      <defs>
       <path d="M 40.578125 39.3125 
Q 47.65625 37.796875 51.625 33 
Q 55.609375 28.21875 55.609375 21.1875 
Q 55.609375 10.40625 48.1875 4.484375 
Q 40.765625 -1.421875 27.09375 -1.421875 
Q 22.515625 -1.421875 17.65625 -0.515625 
Q 12.796875 0.390625 7.625 2.203125 
L 7.625 11.71875 
Q 11.71875 9.328125 16.59375 8.109375 
Q 21.484375 6.890625 26.8125 6.890625 
Q 36.078125 6.890625 40.9375 10.546875 
Q 45.796875 14.203125 45.796875 21.1875 
Q 45.796875 27.640625 41.28125 31.265625 
Q 36.765625 34.90625 28.71875 34.90625 
L 20.21875 34.90625 
L 20.21875 43.015625 
L 29.109375 43.015625 
Q 36.375 43.015625 40.234375 45.921875 
Q 44.09375 48.828125 44.09375 54.296875 
Q 44.09375 59.90625 40.109375 62.90625 
Q 36.140625 65.921875 28.71875 65.921875 
Q 24.65625 65.921875 20.015625 65.03125 
Q 15.375 64.15625 9.8125 62.3125 
L 9.8125 71.09375 
Q 15.4375 72.65625 20.34375 73.4375 
Q 25.25 74.21875 29.59375 74.21875 
Q 40.828125 74.21875 47.359375 69.109375 
Q 53.90625 64.015625 53.90625 55.328125 
Q 53.90625 49.265625 50.4375 45.09375 
Q 46.96875 40.921875 40.578125 39.3125 
z
" id="DejaVuSans-51"/>
      </defs>
      <g transform="translate(153.614002 315.270437)scale(0.1 -0.1)">
       <use xlink:href="#DejaVuSans-8722"/>
       <use x="83.789062" xlink:href="#DejaVuSans-51"/>
       <use x="147.412109" xlink:href="#DejaVuSans-48"/>
       <use x="211.035156" xlink:href="#DejaVuSans-48"/>
      </g>
     </g>
    </g>
    <g id="xtick_3">
     <g id="line2d_3">
      <g>
       <use style="stroke:#000000;stroke-width:0.8;" x="231.593117" xlink:href="#m3a0f266302" y="300.672"/>
      </g>
     </g>
     <g id="text_3">
      <!-- −200 -->
      <defs>
       <path d="M 19.1875 8.296875 
L 53.609375 8.296875 
L 53.609375 0 
L 7.328125 0 
L 7.328125 8.296875 
Q 12.9375 14.109375 22.625 23.890625 
Q 32.328125 33.6875 34.8125 36.53125 
Q 39.546875 41.84375 41.421875 45.53125 
Q 43.3125 49.21875 43.3125 52.78125 
Q 43.3125 58.59375 39.234375 62.25 
Q 35.15625 65.921875 28.609375 65.921875 
Q 23.96875 65.921875 18.8125 64.3125 
Q 13.671875 62.703125 7.8125 59.421875 
L 7.8125 69.390625 
Q 13.765625 71.78125 18.9375 73 
Q 24.125 74.21875 28.421875 74.21875 
Q 39.75 74.21875 46.484375 68.546875 
Q 53.21875 62.890625 53.21875 53.421875 
Q 53.21875 48.921875 51.53125 44.890625 
Q 49.859375 40.875 45.40625 35.40625 
Q 44.1875 33.984375 37.640625 27.21875 
Q 31.109375 20.453125 19.1875 8.296875 
z
" id="DejaVuSans-50"/>
      </defs>
      <g transform="translate(217.859524 315.270437)scale(0.1 -0.1)">
       <use xlink:href="#DejaVuSans-8722"/>
       <use x="83.789062" xlink:href="#DejaVuSans-50"/>
       <use x="147.412109" xlink:href="#DejaVuSans-48"/>
       <use x="211.035156" xlink:href="#DejaVuSans-48"/>
      </g>
     </g>
    </g>
    <g id="xtick_4">
     <g id="line2d_4">
      <g>
       <use style="stroke:#000000;stroke-width:0.8;" x="295.838639" xlink:href="#m3a0f266302" y="300.672"/>
      </g>
     </g>
     <g id="text_4">
      <!-- −100 -->
      <defs>
       <path d="M 12.40625 8.296875 
L 28.515625 8.296875 
L 28.515625 63.921875 
L 10.984375 60.40625 
L 10.984375 69.390625 
L 28.421875 72.90625 
L 38.28125 72.90625 
L 38.28125 8.296875 
L 54.390625 8.296875 
L 54.390625 0 
L 12.40625 0 
z
" id="DejaVuSans-49"/>
      </defs>
      <g transform="translate(282.105046 315.270437)scale(0.1 -0.1)">
       <use xlink:href="#DejaVuSans-8722"/>
       <use x="83.789062" xlink:href="#DejaVuSans-49"/>
       <use x="147.412109" xlink:href="#DejaVuSans-48"/>
       <use x="211.035156" xlink:href="#DejaVuSans-48"/>
      </g>
     </g>
    </g>
    <g id="xtick_5">
     <g id="line2d_5">
      <g>
       <use style="stroke:#000000;stroke-width:0.8;" x="360.084161" xlink:href="#m3a0f266302" y="300.672"/>
      </g>
     </g>
     <g id="text_5">
      <!-- 0 -->
      <g transform="translate(356.902911 315.270437)scale(0.1 -0.1)">
       <use xlink:href="#DejaVuSans-48"/>
      </g>
     </g>
    </g>
    <g id="xtick_6">
     <g id="line2d_6">
      <g>
       <use style="stroke:#000000;stroke-width:0.8;" x="424.329683" xlink:href="#m3a0f266302" y="300.672"/>
      </g>
     </g>
     <g id="text_6">
      <!-- 100 -->
      <g transform="translate(414.785933 315.270437)scale(0.1 -0.1)">
       <use xlink:href="#DejaVuSans-49"/>
       <use x="63.623047" xlink:href="#DejaVuSans-48"/>
       <use x="127.246094" xlink:href="#DejaVuSans-48"/>
      </g>
     </g>
    </g>
    <g id="text_7">
     <!-- x [m] -->
     <defs>
      <path d="M 54.890625 54.6875 
L 35.109375 28.078125 
L 55.90625 0 
L 45.3125 0 
L 29.390625 21.484375 
L 13.484375 0 
L 2.875 0 
L 24.125 28.609375 
L 4.6875 54.6875 
L 15.28125 54.6875 
L 29.78125 35.203125 
L 44.28125 54.6875 
z
" id="DejaVuSans-120"/>
      <path id="DejaVuSans-32"/>
      <path d="M 8.59375 75.984375 
L 29.296875 75.984375 
L 29.296875 69 
L 17.578125 69 
L 17.578125 -6.203125 
L 29.296875 -6.203125 
L 29.296875 -13.1875 
L 8.59375 -13.1875 
z
" id="DejaVuSans-91"/>
      <path d="M 52 44.1875 
Q 55.375 50.25 60.0625 53.125 
Q 64.75 56 71.09375 56 
Q 79.640625 56 84.28125 50.015625 
Q 88.921875 44.046875 88.921875 33.015625 
L 88.921875 0 
L 79.890625 0 
L 79.890625 32.71875 
Q 79.890625 40.578125 77.09375 44.375 
Q 74.3125 48.1875 68.609375 48.1875 
Q 61.625 48.1875 57.5625 43.546875 
Q 53.515625 38.921875 53.515625 30.90625 
L 53.515625 0 
L 44.484375 0 
L 44.484375 32.71875 
Q 44.484375 40.625 41.703125 44.40625 
Q 38.921875 48.1875 33.109375 48.1875 
Q 26.21875 48.1875 22.15625 43.53125 
Q 18.109375 38.875 18.109375 30.90625 
L 18.109375 0 
L 9.078125 0 
L 9.078125 54.6875 
L 18.109375 54.6875 
L 18.109375 46.1875 
Q 21.1875 51.21875 25.484375 53.609375 
Q 29.78125 56 35.6875 56 
Q 41.65625 56 45.828125 52.96875 
Q 50 49.953125 52 44.1875 
z
" id="DejaVuSans-109"/>
      <path d="M 30.421875 75.984375 
L 30.421875 -13.1875 
L 9.71875 -13.1875 
L 9.71875 -6.203125 
L 21.390625 -6.203125 
L 21.390625 69 
L 9.71875 69 
L 9.71875 75.984375 
z
" id="DejaVuSans-93"/>
     </defs>
     <g transform="translate(245.879688 328.948562)scale(0.1 -0.1)">
      <use xlink:href="#DejaVuSans-120"/>
      <use x="59.179688" xlink:href="#DejaVuSans-32"/>
      <use x="90.966797" xlink:href="#DejaVuSans-91"/>
      <use x="129.980469" xlink:href="#DejaVuSans-109"/>
      <use x="227.392578" xlink:href="#DejaVuSans-93"/>
     </g>
    </g>
   </g>
   <g id="matplotlib.axis_2">
    <g id="ytick_1">
     <g id="line2d_7">
      <defs>
       <path d="M 0 0 
L -3.5 0 
" id="m9630e4a005" style="stroke:#000000;stroke-width:0.8;"/>
      </defs>
      <g>
       <use style="stroke:#000000;stroke-width:0.8;" x="66.816" xlink:href="#m9630e4a005" y="286.607408"/>
      </g>
     </g>
     <g id="text_8">
      <!-- −75 -->
      <defs>
       <path d="M 8.203125 72.90625 
L 55.078125 72.90625 
L 55.078125 68.703125 
L 28.609375 0 
L 18.3125 0 
L 43.21875 64.59375 
L 8.203125 64.59375 
z
" id="DejaVuSans-55"/>
       <path d="M 10.796875 72.90625 
L 49.515625 72.90625 
L 49.515625 64.59375 
L 19.828125 64.59375 
L 19.828125 46.734375 
Q 21.96875 47.46875 24.109375 47.828125 
Q 26.265625 48.1875 28.421875 48.1875 
Q 40.625 48.1875 47.75 41.5 
Q 54.890625 34.8125 54.890625 23.390625 
Q 54.890625 11.625 47.5625 5.09375 
Q 40.234375 -1.421875 26.90625 -1.421875 
Q 22.3125 -1.421875 17.546875 -0.640625 
Q 12.796875 0.140625 7.71875 1.703125 
L 7.71875 11.625 
Q 12.109375 9.234375 16.796875 8.0625 
Q 21.484375 6.890625 26.703125 6.890625 
Q 35.15625 6.890625 40.078125 11.328125 
Q 45.015625 15.765625 45.015625 23.390625 
Q 45.015625 31 40.078125 35.4375 
Q 35.15625 39.890625 26.703125 39.890625 
Q 22.75 39.890625 18.8125 39.015625 
Q 14.890625 38.140625 10.796875 36.28125 
z
" id="DejaVuSans-53"/>
      </defs>
      <g transform="translate(38.711313 290.406627)scale(0.1 -0.1)">
       <use xlink:href="#DejaVuSans-8722"/>
       <use x="83.789062" xlink:href="#DejaVuSans-55"/>
       <use x="147.412109" xlink:href="#DejaVuSans-53"/>
      </g>
     </g>
    </g>
    <g id="ytick_2">
     <g id="line2d_8">
      <g>
       <use style="stroke:#000000;stroke-width:0.8;" x="66.816" xlink:href="#m9630e4a005" y="251.047704"/>
      </g>
     </g>
     <g id="text_9">
      <!-- −50 -->
      <g transform="translate(38.711313 254.846923)scale(0.1 -0.1)">
       <use xlink:href="#DejaVuSans-8722"/>
       <use x="83.789062" xlink:href="#DejaVuSans-53"/>
       <use x="147.412109" xlink:href="#DejaVuSans-48"/>
      </g>
     </g>
    </g>
    <g id="ytick_3">
     <g id="line2d_9">
      <g>
       <use style="stroke:#000000;stroke-width:0.8;" x="66.816" xlink:href="#m9630e4a005" y="215.488"/>
      </g>
     </g>
     <g id="text_10">
      <!-- −25 -->
      <g transform="translate(38.711313 219.287219)scale(0.1 -0.1)">
       <use xlink:href="#DejaVuSans-8722"/>
       <use x="83.789062" xlink:href="#DejaVuSans-50"/>
       <use x="147.412109" xlink:href="#DejaVuSans-53"/>
      </g>
     </g>
    </g>
    <g id="ytick_4">
     <g id="line2d_10">
      <g>
       <use style="stroke:#000000;stroke-width:0.8;" x="66.816" xlink:href="#m9630e4a005" y="179.928296"/>
      </g>
     </g>
     <g id="text_11">
      <!-- 0 -->
      <g transform="translate(53.4535 183.727515)scale(0.1 -0.1)">
       <use xlink:href="#DejaVuSans-48"/>
      </g>
     </g>
    </g>
    <g id="ytick_5">
     <g id="line2d_11">
      <g>
       <use style="stroke:#000000;stroke-width:0.8;" x="66.816" xlink:href="#m9630e4a005" y="144.368593"/>
      </g>
     </g>
     <g id="text_12">
      <!-- 25 -->
      <g transform="translate(47.091 148.167811)scale(0.1 -0.1)">
       <use xlink:href="#DejaVuSans-50"/>
       <use x="63.623047" xlink:href="#DejaVuSans-53"/>
      </g>
     </g>
    </g>
    <g id="ytick_6">
     <g id="line2d_12">
      <g>
       <use style="stroke:#000000;stroke-width:0.8;" x="66.816" xlink:href="#m9630e4a005" y="108.808889"/>
      </g>
     </g>
     <g id="text_13">
      <!-- 50 -->
      <g transform="translate(47.091 112.608107)scale(0.1 -0.1)">
       <use xlink:href="#DejaVuSans-53"/>
       <use x="63.623047" xlink:href="#DejaVuSans-48"/>
      </g>
     </g>
    </g>
    <g id="ytick_7">
     <g id="line2d_13">
      <g>
       <use style="stroke:#000000;stroke-width:0.8;" x="66.816" xlink:href="#m9630e4a005" y="73.249185"/>
      </g>
     </g>
     <g id="text_14">
      <!-- 75 -->
      <g transform="translate(47.091 77.048404)scale(0.1 -0.1)">
       <use xlink:href="#DejaVuSans-55"/>
       <use x="63.623047" xlink:href="#DejaVuSans-53"/>
      </g>
     </g>
    </g>
    <g id="ytick_8">
     <g id="line2d_14">
      <g>
       <use style="stroke:#000000;stroke-width:0.8;" x="66.816" xlink:href="#m9630e4a005" y="37.689481"/>
      </g>
     </g>
     <g id="text_15">
      <!-- 100 -->
      <g transform="translate(40.7285 41.4887)scale(0.1 -0.1)">
       <use xlink:href="#DejaVuSans-49"/>
       <use x="63.623047" xlink:href="#DejaVuSans-48"/>
       <use x="127.246094" xlink:href="#DejaVuSans-48"/>
      </g>
     </g>
    </g>
    <g id="text_16">
     <!-- y [m] -->
     <defs>
      <path d="M 32.171875 -5.078125 
Q 28.375 -14.84375 24.75 -17.8125 
Q 21.140625 -20.796875 15.09375 -20.796875 
L 7.90625 -20.796875 
L 7.90625 -13.28125 
L 13.1875 -13.28125 
Q 16.890625 -13.28125 18.9375 -11.515625 
Q 21 -9.765625 23.484375 -3.21875 
L 25.09375 0.875 
L 2.984375 54.6875 
L 12.5 54.6875 
L 29.59375 11.921875 
L 46.6875 54.6875 
L 56.203125 54.6875 
z
" id="DejaVuSans-121"/>
     </defs>
     <g transform="translate(32.631625 167.112312)rotate(-90)scale(0.1 -0.1)">
      <use xlink:href="#DejaVuSans-121"/>
      <use x="59.179688" xlink:href="#DejaVuSans-32"/>
      <use x="90.966797" xlink:href="#DejaVuSans-91"/>
      <use x="129.980469" xlink:href="#DejaVuSans-109"/>
      <use x="227.392578" xlink:href="#DejaVuSans-93"/>
     </g>
    </g>
   </g>
   <g id="line2d_15">
    <path clip-path="url(#pb423e09b67)" d="M 429.292436 72.069542 
L 429.296795 72.109717 
L 429.198815 71.717677 
L 428.348661 69.402477 
L 422.436296 55.163759 
L 421.341166 52.658444 
L 420.034405 49.439885 
L 418.517376 46.22848 
L 415.87626 41.354295 
L 413.898508 38.315789 
L 412.794916 37.341825 
L 411.83899 36.387352 
L 410.690431 35.327693 
L 409.970442 34.961005 
L 408.676121 34.639312 
L 408.048146 34.725971 
L 407.489248 35.067628 
L 405.134501 37.387033 
L 404.465943 38.368014 
L 404.231709 39.091107 
L 403.843382 41.173871 
L 403.737746 42.942444 
L 403.843297 45.485169 
L 404.175036 47.667238 
L 405.031621 51.442483 
L 407.478966 60.631367 
L 410.73987 73.300196 
L 411.848063 78.773609 
L 413.598641 86.005242 
L 414.771528 90.988059 
L 416.762885 97.346855 
L 418.061284 100.667404 
L 419.021594 103.380975 
L 421.070441 109.71649 
L 421.462476 111.683073 
L 422.011463 116.569756 
L 422.094601 118.742318 
L 421.961649 122.620512 
L 421.45451 126.921693 
L 421.124647 128.618337 
L 420.238464 131.533856 
L 418.661628 134.834185 
L 415.944211 139.83975 
L 414.512996 141.854025 
L 413.065837 143.769239 
L 407.281977 150.833537 
L 406.21234 151.930793 
L 405.696044 152.900634 
L 403.269981 158.768596 
L 402.644839 160.930952 
L 401.987271 163.987766 
L 401.255471 168.555163 
L 401.010081 173.051851 
L 400.833755 175.432232 
L 400.517364 176.852275 
L 400.177278 177.522112 
L 399.37687 178.455582 
L 398.768869 178.876112 
L 398.0022 179.135544 
L 396.73069 179.352315 
L 395.497793 179.262998 
L 394.063169 179.253681 
L 390.436547 178.45843 
L 388.628832 178.658374 
L 384.819343 178.441699 
L 383.317347 178.733191 
L 382.414825 178.858496 
L 381.724607 178.75934 
L 379.316587 178.163045 
L 378.274916 178.183264 
L 377.273547 178.205476 
L 375.133158 178.017847 
L 373.563708 178.14427 
L 371.822029 178.085071 
L 369.705321 178.068842 
L 368.948113 178.037101 
L 367.421797 177.811846 
L 365.328726 178.076826 
L 364.464211 178.339688 
L 363.504865 178.681917 
L 362.822571 178.729997 
L 361.531463 178.735719 
L 359.601933 179.486077 
L 358.889247 179.936489 
L 357.255047 181.155838 
L 354.533401 182.814 
L 353.926996 183.481885 
L 353.354797 184.462437 
L 352.37162 186.637893 
L 350.788135 190.733909 
L 349.890844 192.098726 
L 349.06568 192.98647 
L 346.770822 194.845492 
L 344.965661 195.829296 
L 341.733406 197.9053 
L 340.967825 198.073567 
L 339.558443 198.380677 
L 338.671158 198.837268 
L 337.852805 199.52965 
L 337.032535 200.60616 
L 336.070935 202.217114 
L 335.200002 204.348255 
L 334.787812 206.046258 
L 333.976465 211.45942 
L 333.866487 214.693809 
L 333.678382 220.896691 
L 333.229928 225.379142 
L 332.631071 229.402721 
L 332.281351 232.372435 
L 331.85035 235.791838 
L 330.961393 240.376257 
L 330.361212 242.383301 
L 329.903638 243.314994 
L 329.640856 243.506076 
L 329.198119 243.481244 
L 328.18802 243.356072 
L 327.652338 243.545968 
L 326.79087 244.138603 
L 325.91682 244.886228 
L 324.672922 246.441899 
L 323.962756 247.543589 
L 322.735025 250.025712 
L 321.733566 251.804979 
L 319.39152 255.34035 
L 318.261569 257.238235 
L 315.609352 260.934571 
L 313.896692 262.60393 
L 312.346002 263.792866 
L 311.558506 264.350597 
L 311.006421 264.538006 
L 310.444535 264.487008 
L 309.508965 264.288986 
L 308.638114 264.381941 
L 307.651027 264.458071 
L 306.360438 264.487127 
L 305.26643 264.548099 
L 303.671623 264.508037 
L 301.666356 264.730329 
L 300.381525 264.720356 
L 299.20537 264.908279 
L 297.978316 265.145626 
L 296.207949 265.23754 
L 294.674128 265.060285 
L 293.173551 265.198237 
L 292.064705 265.251488 
L 290.089658 265.391495 
L 287.867153 265.60709 
L 284.875075 265.722056 
L 281.72278 266.101199 
L 279.700015 266.227129 
L 277.817286 266.483447 
L 273.50792 266.712157 
L 267.021752 267.171362 
L 264.600511 267.398008 
L 262.316914 267.506263 
L 261.053559 267.587546 
L 260.265661 267.706754 
L 258.915648 267.927793 
L 256.436335 268.09651 
L 252.003876 269.179707 
L 251.031317 269.414854 
L 250.038043 269.283958 
L 248.849346 269.101717 
L 247.468415 269.195678 
L 246.333971 269.511627 
L 245.560404 269.734971 
L 245.059436 269.666805 
L 244.404551 269.413722 
L 244.557946 269.529372 
L 244.645835 269.646847 
L 244.464211 269.267542 
L 244.185554 268.646176 
L 244.683636 269.566734 
L 244.648494 269.409605 
L 244.660161 269.591925 
L 244.718087 269.228305 
L 244.747448 269.098424 
L 244.574452 269.505346 
L 244.823913 269.221768 
L 245.325473 268.89922 
L 245.867279 268.85234 
L 247.063162 268.880864 
L 247.867787 269.017077 
L 249.204012 269.382054 
L 250.998195 269.282431 
L 253.316158 268.834187 
L 254.253246 268.619854 
L 255.615482 268.281356 
L 256.735855 267.905691 
L 259.637679 267.667701 
L 261.552558 267.755079 
L 266.609248 267.274207 
L 273.431627 266.848853 
L 274.528557 266.564463 
L 275.421469 266.328941 
L 276.56454 266.391991 
L 277.827697 266.386909 
L 279.869683 266.292683 
L 282.965237 266.373545 
L 286.495751 266.128351 
L 289.766336 266.690777 
L 291.340484 266.557689 
L 298.848176 265.627449 
L 300.252632 265.718766 
L 302.140816 265.735147 
L 303.489586 265.57446 
L 305.151005 265.259063 
L 307.041399 265.106503 
L 309.554592 264.597877 
L 310.587814 264.427244 
L 312.101273 264.306512 
L 312.816786 263.993431 
L 313.729505 263.294717 
L 314.524351 262.365149 
L 315.657433 260.902335 
L 316.62059 259.6178 
L 323.323024 248.850849 
L 324.741902 246.408876 
L 325.718436 244.918405 
L 326.461316 244.220831 
L 327.189572 243.888462 
L 330.031155 242.951392 
L 330.403935 242.594403 
L 330.749492 241.792934 
L 331.202173 240.043237 
L 331.284334 239.072091 
L 331.203471 237.35873 
L 330.888801 232.776116 
L 330.747764 230.245638 
L 330.748109 230.249595 
L 330.461907 227.529272 
L 330.464897 227.595607 
L 330.573257 226.769972 
L 331.645395 221.312061 
L 331.767903 219.155276 
L 331.651866 217.0143 
L 331.580172 214.268955 
L 331.672878 199.274266 
L 331.547632 196.724201 
L 331.747817 193.682991 
L 332.010167 191.759283 
L 331.898582 189.323585 
L 331.798772 186.380308 
L 331.78517 171.620479 
L 331.352646 139.998633 
L 331.398578 136.331511 
L 331.394448 133.22988 
L 331.362999 129.729121 
L 331.028193 124.563049 
L 331.271474 117.611134 
L 331.437933 114.445435 
L 330.74554 73.754008 
L 330.374524 71.641389 
L 329.926396 70.171617 
L 329.301416 68.714473 
L 328.749263 67.958435 
L 328.152645 67.52478 
L 326.734781 67.012176 
L 325.827518 66.921572 
L 322.584437 66.925693 
L 320.549716 66.92924 
L 315.032085 67.150462 
L 313.283025 67.01546 
L 310.829088 66.937496 
L 309.484186 66.765885 
L 304.118847 66.821171 
L 301.882714 66.443461 
L 299.846373 66.112589 
L 297.259983 66.282229 
L 295.96085 66.441578 
L 292.726088 66.381275 
L 290.269274 66.17961 
L 288.773788 65.901875 
L 287.637027 65.912954 
L 285.426043 65.975987 
L 284.739355 65.809933 
L 283.712044 65.541792 
L 282.560269 65.583664 
L 278.9775 65.584648 
L 278.100257 65.681363 
L 275.89702 66.164843 
L 273.453369 66.05376 
L 272.530653 66.046649 
L 271.872755 66.286174 
L 271.213235 66.800294 
L 270.295965 67.910425 
L 269.609492 69.12908 
L 268.818388 71.114262 
L 268.31655 73.010876 
L 268.057417 74.917178 
L 267.674189 80.147684 
L 267.561305 84.427839 
L 267.448651 98.880132 
L 267.002801 105.226413 
L 266.358888 109.160748 
L 265.836975 110.753177 
L 265.179383 111.990852 
L 262.654439 115.437944 
L 261.950462 116.045593 
L 260.872592 116.883404 
L 258.908129 118.943144 
L 257.34021 121.084451 
L 257.026554 121.397994 
L 256.692293 121.561411 
L 255.508344 121.583319 
L 254.327261 121.337663 
L 254.362819 121.335318 
L 253.483693 120.99239 
L 252.911398 120.775541 
L 252.31913 120.163226 
L 250.391334 117.523036 
L 249.44862 116.262687 
L 248.699857 115.624853 
L 247.985531 115.285892 
L 246.042904 114.832527 
L 245.100149 114.767633 
L 243.116452 114.826752 
L 240.572695 114.349521 
L 237.528734 113.467413 
L 236.393358 113.535033 
L 233.622111 113.826631 
L 232.40074 113.510532 
L 230.529606 113.109601 
L 228.295386 112.661932 
L 227.125359 112.20868 
L 226.216463 111.970025 
L 225.58661 111.726259 
L 224.089847 111.494023 
L 223.684558 111.088686 
L 223.452943 110.507461 
L 223.052386 108.603847 
L 222.735331 105.999998 
L 222.565837 102.698815 
L 222.414063 97.691522 
L 222.118982 94.777404 
L 221.666314 92.180621 
L 220.618679 88.076238 
L 218.502056 80.163683 
L 217.402752 77.468555 
L 216.012242 74.683129 
L 215.052695 73.265827 
L 214.298644 72.538069 
L 213.713407 72.264793 
L 211.972752 71.948887 
L 211.284441 72.062495 
L 210.353416 72.58919 
L 208.330896 73.681082 
L 207.615911 73.762283 
L 207.043136 73.58693 
L 204.18045 72.101783 
L 202.955287 71.631387 
L 202.108346 71.051481 
L 199.007915 68.431913 
L 198.052543 67.91755 
L 197.379941 67.77161 
L 195.900752 67.54072 
L 194.749863 67.28506 
L 193.908923 67.337777 
L 192.67771 67.467394 
L 191.671969 67.258413 
L 190.656498 67.061848 
L 188.932956 66.930917 
L 187.407526 66.884803 
L 181.66077 67.09854 
L 177.95311 67.385533 
L 176.314514 67.391583 
L 173.466714 67.632274 
L 172.643755 67.653106 
L 171.050485 67.765654 
L 159.983209 67.591092 
L 157.97814 67.965473 
L 154.790297 68.5741 
L 154.577343 68.35986 
L 153.610295 66.32421 
L 152.421818 65.050983 
L 151.764227 64.737619 
L 150.991284 64.697612 
L 150.156197 64.668568 
L 148.481655 64.588946 
L 147.186031 64.809842 
L 144.508492 65.109145 
L 137.32675 65.243619 
L 135.86799 65.274265 
L 133.68219 65.169552 
L 125.387922 65.478697 
L 124.584352 65.235754 
L 123.722636 65.020095 
L 122.268756 65.157514 
L 120.33259 65.562433 
L 119.454659 65.72012 
L 114.066942 65.699041 
L 112.707121 65.718368 
L 110.941197 65.515592 
L 106.66713 65.644806 
L 105.547757 65.787417 
L 104.441807 65.836988 
L 103.172905 65.818116 
L 100.601703 66.415636 
L 98.967738 66.357515 
L 97.256884 66.369876 
L 94.909686 66.209311 
L 93.714912 66.15789 
L 92.901994 66.161711 
L 90.912735 66.462066 
L 90.912735 66.462066 
" style="fill:none;stroke:#808080;stroke-linecap:square;stroke-width:1.5;"/>
   </g>
   <g id="line2d_16">
    <path clip-path="url(#pb423e09b67)" d="M 429.307504 72.084505 
L 429.308779 72.101009 
L 429.306944 72.070745 
L 429.308899 72.095947 
L 429.1095 71.433651 
L 426.844567 65.703627 
L 424.3769 60.126273 
L 419.684348 48.767603 
L 417.158155 43.78166 
L 414.418236 38.981044 
L 411.195481 35.751354 
L 408.040099 34.792482 
L 404.91693 37.559021 
L 403.709295 42.6923 
L 404.604446 49.261522 
L 406.374133 56.031576 
L 408.033214 62.90808 
L 409.855543 69.637081 
L 411.36165 76.520734 
L 414.731736 90.423209 
L 416.503714 96.325709 
L 417.736966 99.884184 
L 417.663906 99.596597 
L 418.757257 102.480853 
L 420.74157 108.62633 
L 421.970397 115.812993 
L 421.957615 123.491761 
L 420.718332 130.222586 
L 418.411348 135.471558 
L 415.866679 139.97896 
L 412.859485 143.987947 
L 409.708645 147.933465 
L 406.72221 151.218929 
L 404.188494 156.19847 
L 402.302508 161.911138 
L 401.104656 169.035846 
L 400.475086 176.769906 
L 398.253317 179.328799 
L 394.583325 179.606961 
L 391.137573 178.616437 
L 387.921756 178.587457 
L 384.78569 178.306775 
L 381.057823 178.395551 
L 373.870091 177.855238 
L 370.615632 177.858889 
L 367.331387 177.60005 
L 360.306528 179.181067 
L 356.650537 181.043428 
L 353.582081 184.007963 
L 351.261993 189.690785 
L 348.326655 193.703117 
L 341.451174 197.949531 
L 338.073686 199.196594 
L 335.285565 203.861754 
L 334.152248 210.620612 
L 333.820969 218.157447 
L 333.285291 225.751607 
L 332.187918 233.065122 
L 330.967369 240.156579 
L 329.801006 243.403615 
L 327.078559 243.952803 
L 324.152177 247.34276 
L 321.843549 251.718179 
L 318.9256 256.255821 
L 315.924963 260.364936 
L 312.666814 263.343042 
L 309.387387 264.33041 
L 305.849927 264.771424 
L 291.800419 265.174802 
L 288.290062 265.67446 
L 284.838187 265.7407 
L 281.446534 266.115351 
L 278.01518 266.107003 
L 270.811823 266.901685 
L 267.366869 267.131806 
L 263.497975 267.525565 
L 260.121084 267.66663 
L 256.430169 268.128131 
L 253.079176 268.953493 
L 250.155684 269.345577 
L 246.388695 269.485751 
L 244.339619 269.72695 
L 244.22741 268.950437 
L 244.565463 269.565284 
L 244.633989 269.270867 
L 245.229368 268.886416 
L 246.61508 268.625645 
L 249.805848 269.137466 
L 253.355185 268.612889 
L 256.86609 267.572231 
L 260.537277 267.349306 
L 263.978656 267.466492 
L 267.531854 267.102476 
L 270.912126 267.038499 
L 277.920366 266.209975 
L 281.324936 266.221203 
L 284.902886 266.014632 
L 288.248288 266.542826 
L 291.802288 266.489678 
L 295.227603 265.936419 
L 298.808888 265.620543 
L 302.361699 265.787719 
L 305.859572 265.418054 
L 309.346402 264.656469 
L 312.768869 264.086277 
L 316.019734 260.698984 
L 318.28892 256.802666 
L 323.956784 247.74675 
L 326.990955 243.698829 
L 329.975857 242.750324 
L 330.549315 241.957335 
L 330.816779 241.101773 
L 331.148514 237.69419 
L 330.814605 233.718345 
L 330.81699 232.183133 
L 330.499707 228.594491 
L 331.626232 217.937606 
L 331.780195 202.927303 
L 331.483432 195.152641 
L 331.879493 192.524093 
L 331.849084 186.362251 
L 331.963072 171.159833 
L 331.447356 156.238689 
L 331.30867 133.13328 
L 330.982932 125.41038 
L 331.270414 117.517055 
L 331.29696 109.687856 
L 331.141054 101.798502 
L 331.119526 94.007791 
L 330.890364 86.429159 
L 330.869174 78.348533 
L 330.154649 71.052622 
L 327.784067 67.546104 
L 324.12614 67.045454 
L 320.628903 66.876915 
L 317.104097 66.979295 
L 313.528857 66.968542 
L 309.993944 66.820279 
L 306.417377 66.921357 
L 299.357781 66.295503 
L 292.44345 66.399148 
L 289.018901 66.020863 
L 285.481017 66.072637 
L 281.964794 65.592519 
L 278.418638 65.49533 
L 274.905886 66.098673 
L 271.543848 66.479807 
L 268.701563 71.085538 
L 267.769443 78.43203 
L 267.537019 86.057343 
L 267.539039 94.257308 
L 267.27426 101.864945 
L 266.322689 109.1218 
L 263.662443 114.151649 
L 260.470884 117.542626 
L 256.616499 121.949935 
L 255.679595 121.653851 
L 253.651882 121.194859 
L 252.317587 120.451629 
L 250.065799 117.408921 
L 247.320469 115.266493 
L 244.069372 114.989521 
L 240.527665 114.422362 
L 237.914934 113.615645 
L 236.148433 113.646603 
L 233.621913 113.961555 
L 228.675331 112.640474 
L 227.385051 112.015588 
L 225.764135 111.619709 
L 224.826043 111.729613 
L 223.180018 109.957867 
L 222.522985 102.618435 
L 222.062108 94.710263 
L 220.555175 87.747242 
L 218.927873 81.553272 
L 216.61747 75.865241 
L 214.576072 72.816848 
L 212.48404 71.968758 
L 212.192547 71.927891 
L 209.441339 73.15416 
L 206.362344 73.254473 
L 203.006038 71.58877 
L 199.656737 68.81914 
L 196.357644 67.733346 
L 192.570088 67.503698 
L 189.24144 66.979192 
L 185.436398 66.89146 
L 171.637806 67.797171 
L 168.142927 67.799059 
L 160.942786 67.402125 
L 155.258109 68.647526 
L 154.572287 68.565654 
L 154.333905 68.005324 
L 153.668254 66.756027 
L 150.650826 65.003233 
L 147.479651 64.740938 
L 136.559852 65.382299 
L 133.098315 65.313806 
L 126.073093 65.533171 
L 122.614744 65.249517 
L 119.250606 65.843923 
L 115.474974 65.635216 
L 112.137861 65.615427 
L 108.811319 65.395738 
L 101.790084 65.769917 
L 98.359404 66.340113 
L 94.892797 66.277621 
L 91.319581 66.367172 
L 91.319581 66.367172 
" style="fill:none;stroke:#ff0000;stroke-linecap:square;stroke-width:1.5;"/>
   </g>
   <g id="patch_3">
    <path d="M 66.816 300.672 
L 66.816 6.912 
" style="fill:none;stroke:#000000;stroke-linecap:square;stroke-linejoin:miter;stroke-width:0.8;"/>
   </g>
   <g id="patch_4">
    <path d="M 451.584 300.672 
L 451.584 6.912 
" style="fill:none;stroke:#000000;stroke-linecap:square;stroke-linejoin:miter;stroke-width:0.8;"/>
   </g>
   <g id="patch_5">
    <path d="M 66.816 300.672 
L 451.584 300.672 
" style="fill:none;stroke:#000000;stroke-linecap:square;stroke-linejoin:miter;stroke-width:0.8;"/>
   </g>
   <g id="patch_6">
    <path d="M 66.816 6.912 
L 451.584 6.912 
" style="fill:none;stroke:#000000;stroke-linecap:square;stroke-linejoin:miter;stroke-width:0.8;"/>
   </g>
  </g>
 </g>
 <defs>
  <clipPath id="pb423e09b67">
   <rect height="293.76" width="384.768" x="66.816" y="6.912"/>
  </clipPath>
 </defs>
</svg>
